#N canvas 352 96 515 471 12;
#X obj 103 122 tgl 15 0 empty empty empty 17 7 0 10 -262144 -1 -1 0
1;
#X obj 126 122 hsl 128 15 -127 127 0 0 empty empty empty -2 -8 0 10
-262144 -1 -1 4400 1;
#X obj 177 390 outlet;
#X obj 103 9 inlet;
#X obj 158 9 inlet;
#X obj 103 224 \$1 0;
#X obj 259 225 spigot;
#X obj 103 170 t f b f;
#X obj 103 197 sel 0;
#X obj 266 317 pack;
#X obj 266 289 \$1;
#X obj 259 250 t b f;
#X obj 265 38 loadbang;
#X msg 265 63 0;
#X floatatom 258 119 5 0 0 0 - - -;
#X obj 158 35 * 2;
#X obj 158 60 - 127;
#X connect 0 0 7 0;
#X connect 1 0 14 0;
#X connect 3 0 0 0;
#X connect 4 0 15 0;
#X connect 5 0 2 0;
#X connect 6 0 11 0;
#X connect 7 0 8 0;
#X connect 7 1 1 0;
#X connect 7 2 6 1;
#X connect 8 0 5 0;
#X connect 9 0 2 0;
#X connect 10 0 9 0;
#X connect 11 0 10 0;
#X connect 11 1 9 1;
#X connect 12 0 13 0;
#X connect 13 0 0 0;
#X connect 13 0 1 0;
#X connect 14 0 6 0;
#X connect 15 0 16 0;
#X connect 16 0 1 0;
#X coords 0 -1 1 1 200 40 1 100 100;
