#N canvas 0 1149 1024 486 10;
#X obj 6 416 notein;
#X floatatom 6 438 5 0 0 0 - - -;
#X floatatom 52 437 5 0 0 0 - - -;
#X floatatom 52 416 5 0 0 0 - - -;
#X floatatom 136 438 5 0 0 0 - - -;
#X floatatom 182 437 5 0 0 0 - - -;
#X floatatom 182 416 5 0 0 0 - - -;
#X obj 136 416 ctlin;
#X obj 263 416 midiin;
#X floatatom 263 438 0 0 0 0 - - -;
#X floatatom 296 438 0 0 0 0 - - -;
#N canvas 1600 1271 1366 709 osc_interface 1;
#X obj 442 105 cnv 15 100 60 empty empty empty 20 12 0 10 -262144 -1
0;
#X obj 17 18 inlet connect;
#X msg 473 311 connect;
#X msg 473 353 \$1 \$2 \$3;
#X obj 473 332 pack s s f;
#X symbolatom 104 125 16 0 0 0 - - -;
#X obj 104 51 loadbang;
#X obj 473 261 t b b s b;
#X obj 17 44 symbol;
#X obj 17 69 t b s;
#X text 430 128 ce petit rectangle gère la connexion réseau avec
le module OSC, f 18;
#X text 75 485 DESCRIPTION :;
#X text 74 511 - ce canvas concentre les commandes qui gèrent la communication
avec les cartes. Il est nécessaire de lui donner l'adresse IP que
la carte lui communique au démarrage pour un fonctionnement assuré
de part et d'autre. À gauche du canvas \, les bidouilles permettent
d'organiser l'ordre des commandes envoyées pour ouvrir et fermer les
connections.;
#X obj 225 17 inlet in_onepacket;
#X obj 762 14 inlet in_bundle;
#X text 324 104 oneshot;
#X text 495 103 bundles;
#X obj 473 479 udpsend;
#X msg 473 456 disconnect;
#X obj 207 126 tgl 15 0 empty empty 1=connected 20 8 0 8 -4034 -257985
-1 1 1;
#X obj 1099 144 + 1;
#X obj 831 144 + 1;
#X msg 784 220 0;
#X obj 784 169 sel 0;
#X obj 1130 144 sel 0;
#X obj 1099 195 mod 32;
#X msg 1144 171 32;
#X obj 1069 144 f;
#X obj 784 144 f;
#X obj 784 119 bang;
#X obj 1069 118 bang;
#X obj 784 194 delay 5 1 msec;
#X text 816 117 Envoie un paquet (bundle) chaque N msec;
#X text 982 73 FABRIQUE DE BUNDLES;
#X msg 879 193 delay \$1 msec;
#X obj 879 216 print;
#X obj 1144 218 print;
#X msg 1144 195 \$1 messages max per packet;
#X text 1105 117 N messages maximum par paquet (bundle);
#X text 435 431 GESTION RESEAU SORTANT;
#X msg 879 170 3;
#X floatatom 241 160 3 0 0 0 - - -;
#X floatatom 272 160 3 0 0 0 - - -;
#X floatatom 303 160 3 0 0 0 - - -;
#X floatatom 334 160 3 0 0 0 - - -;
#X floatatom 241 369 10 0 0 1 millisecond_delay - -;
#X obj 35 323 pipelist;
#X obj 241 253 unpack 0 0 0 0 0;
#X floatatom 366 160 8 0 0 0 - - -;
#X obj 167 230 route received from;
#X floatatom 167 159 5 0 0 0 - - -;
#X text 105 318 If the OSC packet has a timetag \, [pipelist] will
delay it until the time occurs;
#X text 121 281 [unpackOSC] parses lists of floats (only integers on
[0..255]) as OSC packets.;
#X obj 35 357 routeOSC /ack /debug /main;
#X obj 35 380 print ack;
#X obj 86 403 print debug;
#X obj 137 427 print debug;
#X obj 188 451 print;
#X text 103 160 RECEIVED;
#X text 200 153 bytes;
#X text 206 167 from;
#X text 20 192 GESTION RESEAU ENTRANT;
#X obj 104 74 symbol 255.255.255.255;
#X msg 530 311 9000;
#X obj 35 212 udpreceive 9000;
#X obj 1159 417 bng 15 250 50 0 empty empty empty 17 7 0 10 -262144
-1 -1;
#X floatatom 1241 417 4 0 0 0 - - -;
#X floatatom 1296 534 5 0 0 0 - - -;
#X obj 1131 530 bng 15 250 50 0 empty empty empty 17 7 0 10 -262144
-1 -1;
#X obj 1159 616 print;
#X obj 1159 528 symbol;
#X msg 1159 503 /tools/count1;
#X msg 1159 583 \$1 \$2;
#X obj 1159 558 pack s f;
#X obj 1159 446 metro 100;
#X obj 760 486 cnv 15 100 40 empty empty empty 20 12 0 14 -4034 -66577
0;
#X obj 787 497 packOSC;
#X msg 898 303 [;
#X msg 850 303 ];
#X text 764 305 close bundle;
#X floatatom 826 526 5 0 0 0 - - -;
#X text 861 526 bundle depth;
#X msg 869 431 typetags \$1;
#X obj 869 413 tgl 15 0 empty empty empty 17 7 0 10 -257985 -258113
-1 0 1;
#X text 941 431 typetags are on by default;
#X text 947 386 set buffer size (default is 64000 bytes);
#X text 929 302 open bundle;
#X obj 607 38 loadbang;
#X msg 573 211 /tools/connect;
#X obj 787 585 print >>;
#X obj 787 563 spigot;
#X obj 831 563 tgl 15 0 empty empty raw 17 7 0 10 -257985 -258113 -1
0 1;
#X text 655 429 CREATION DU PAQUET OSC;
#X obj 16 252 cnv 15 100 60 empty empty empty 20 12 0 14 -4034 -66577
0;
#X obj 35 266 unpackOSC;
#X text 572 191 envoie à la carte notre ip;
#X text 102 104 CONNECT TO:;
#X msg 869 388 bufsize 4096;
#X obj 850 266 t b b;
#X obj 607 61 t b b b;
#X obj 573 234 t b b a;
#X obj 225 41 t b b a;
#X connect 1 0 8 0;
#X connect 2 0 4 0;
#X connect 3 0 17 0;
#X connect 4 0 3 0;
#X connect 5 0 7 0;
#X connect 6 0 62 0;
#X connect 7 1 2 0;
#X connect 7 2 4 1;
#X connect 7 3 63 0;
#X connect 7 3 18 0;
#X connect 8 0 9 0;
#X connect 9 0 88 0;
#X connect 9 0 62 0;
#X connect 9 1 62 1;
#X connect 13 0 101 0;
#X connect 14 0 30 0;
#X connect 14 0 29 0;
#X connect 14 0 76 0;
#X connect 17 0 19 0;
#X connect 18 0 17 0;
#X connect 20 0 25 0;
#X connect 21 0 28 1;
#X connect 22 0 27 1;
#X connect 22 0 28 1;
#X connect 22 0 98 0;
#X connect 23 0 31 0;
#X connect 24 0 98 0;
#X connect 25 0 24 0;
#X connect 25 0 27 1;
#X connect 26 0 25 1;
#X connect 26 0 37 0;
#X connect 27 0 20 0;
#X connect 28 0 21 0;
#X connect 28 0 23 0;
#X connect 29 0 28 0;
#X connect 30 0 27 0;
#X connect 31 0 22 0;
#X connect 34 0 35 0;
#X connect 37 0 36 0;
#X connect 40 0 31 1;
#X connect 40 0 34 0;
#X connect 46 0 53 0;
#X connect 47 0 41 0;
#X connect 47 1 42 0;
#X connect 47 2 43 0;
#X connect 47 3 44 0;
#X connect 47 4 48 0;
#X connect 49 0 50 0;
#X connect 49 1 47 0;
#X connect 53 0 54 0;
#X connect 53 1 55 0;
#X connect 53 2 56 0;
#X connect 53 3 57 0;
#X connect 62 0 5 0;
#X connect 63 0 4 2;
#X connect 64 0 94 0;
#X connect 64 1 49 0;
#X connect 65 0 74 0;
#X connect 66 0 74 1;
#X connect 67 0 73 1;
#X connect 68 0 73 0;
#X connect 70 0 73 0;
#X connect 71 0 70 0;
#X connect 72 0 69 0;
#X connect 73 0 72 0;
#X connect 74 0 71 0;
#X connect 76 0 17 0;
#X connect 76 0 90 0;
#X connect 76 1 80 0;
#X connect 77 0 76 0;
#X connect 78 0 76 0;
#X connect 82 0 76 0;
#X connect 83 0 82 0;
#X connect 87 0 99 0;
#X connect 88 0 100 0;
#X connect 90 0 89 0;
#X connect 91 0 90 1;
#X connect 94 0 46 0;
#X connect 94 1 46 1;
#X connect 94 1 45 0;
#X connect 97 0 76 0;
#X connect 98 0 77 0;
#X connect 98 1 78 0;
#X connect 99 0 88 0;
#X connect 99 1 77 0;
#X connect 99 2 97 0;
#X connect 100 0 77 0;
#X connect 100 1 78 0;
#X connect 100 2 76 0;
#X connect 101 0 77 0;
#X connect 101 1 78 0;
#X connect 101 2 76 0;
#X coords 0 -1 1 1 445 86 2 100 100;
#X restore 7 45 pd osc_interface;
#N canvas 1600 1176 683 672 tools_commands 0;
#X obj 324 101 cnv 15 100 60 empty empty TOOLS_commands 20 12 0 12
-262144 -1 0;
#X obj 106 107 bng 15 250 50 0 empty empty -FORCEOFF_ALL 17 7 0 10
-262144 -1 -1;
#X obj 221 137 bng 30 250 50 0 empty empty -HARDRESET 32 7 0 10 -258113
-262144 -1;
#X obj 106 135 bng 15 250 50 0 empty empty -SOFTRESET 17 7 0 10 -262144
-1 -1;
#X obj 526 462 outlet;
#X obj 231 107 tgl 15 0 empty empty -DEBUG 17 7 0 10 -4160 -262144
-1 1 1;
#X floatatom 221 107 1 0 0 0 - - -;
#X obj 91 259 s tools_outlet;
#X obj 526 438 r tools_outlet;
#X obj 251 259 s tools_outlet;
#X obj 392 259 s tools_outlet;
#X obj 535 265 s tools_outlet;
#X obj 536 53 s pdreset;
#X obj 231 35 r pdreset;
#X floatatom 231 58 5 0 0 0 - - -;
#X text 342 122 commandes système \, pour communiquer avec la carte.
, f 18;
#X text 46 308 DESCRIPTION :;
#X text 46 344 - FORCEOFF_ALL permet de remettre à zéro l'état des
SORTIES *et* des signaux PWM de la carte.;
#X text 46 413 - SOFTRESET permet de réinitialiser l'ensemble des
commandes de la carte (intermédiaire).;
#X text 46 449 - HARDRESET permet de rebooter la carte.;
#X text 46 379 - DEBUG active un mode bavard : on peut visualiser tout
ce que reçoit et envoie la carte., f 61;
#X obj 536 75 s pdforceoff;
#X msg 251 235 /tools/softreset;
#X msg 91 235 /tools/forceoff_all;
#X msg 392 235 /tools/hardreset;
#X msg 535 171 /tools/debug;
#X obj 535 218 pack s f;
#X msg 535 241 \$1 \$2;
#X obj 535 194 symbol;
#X connect 1 0 23 0;
#X connect 1 0 21 0;
#X connect 2 0 24 0;
#X connect 2 0 12 0;
#X connect 3 0 22 0;
#X connect 3 0 12 0;
#X connect 5 0 6 0;
#X connect 5 0 26 1;
#X connect 5 0 25 0;
#X connect 8 0 4 0;
#X connect 13 0 14 0;
#X connect 14 0 5 0;
#X connect 22 0 9 0;
#X connect 23 0 7 0;
#X connect 24 0 10 0;
#X connect 25 0 28 0;
#X connect 26 0 27 0;
#X connect 27 0 11 0;
#X connect 28 0 26 0;
#X coords 0 -1 1 1 360 86 2 100 100;
#X restore 455 21 pd tools_commands;
#N canvas 400 1340 1200 606 lowlevel_commands 0;
#X obj 403 101 cnv 15 100 60 empty empty LOWLEVEL_commands 20 12 0
12 -262144 -1 0;
#X obj 543 614 outlet;
#X obj 242 204 hsl 64 15 0 255 0 0 empty empty ratio -2 -8 0 10 -261234
-1 -1 0 0;
#X floatatom 239 222 5 0 0 0 - - -;
#X floatatom 148 222 4 0 0 2 - - -;
#X obj 543 593 r lowlevel_outlet;
#X obj 106 135 nbx 2 14 0 47 0 0 empty empty sortie 0 -8 0 10 -4034
-1 -1 0 256;
#X obj 150 135 tgl 15 0 empty empty 0/1 0 -7 0 10 -261234 -1 -1 0 1
;
#X text 104 102 OUTPUT;
#X obj 239 135 tgl 15 0 empty empty 0/1 0 -7 0 10 -261234 -1 -1 0 1
;
#X text 237 102 OUTPUT_ALL;
#X obj 342 137 nbx 3 14 0 47 0 0 empty empty sortie 0 -8 0 10 -4034
-1 -1 0 256;
#X text 339 103 OUTPUT_STATE;
#X obj 105 204 nbx 2 14 0 47 0 0 empty empty sortie 0 -8 0 10 -4034
-1 -1 0 256;
#X obj 151 204 hsl 64 15 0 255 0 0 empty empty ratio -2 -8 0 10 -261234
-1 -1 0 0;
#X text 103 169 PWM;
#X text 237 169 PWM_ALL;
#X obj 105 13 r pdreset;
#X floatatom 105 36 5 0 0 0 - - -;
#X obj 108 285 hsl 64 15 0 1 0 0 empty empty PWM_ratio -2 -8 0 10 -261234
-1 -1 0 0;
#X floatatom 105 303 5 0 0 0 - - -;
#X text 103 250 OE;
#X obj 182 285 hsl 128 15 0.01 10 1 0 empty empty période_(sec) -2
-8 0 10 -261234 -1 -1 0 0;
#X floatatom 179 303 5 0 0 0 - - -;
#X text -30 581 DESCRIPTION :;
#X text 422 122 commandes de bas- niveau à utiliser pour des montages
plus complexes., f 18;
#X text -30 606 - OUTPUT et OUTPUT_ALL permettent d'activer/de désactiver
une SORTIE ou l'ENSEMBLE des sorties de la carte.;
#X text -30 641 - OUTPUT_STATE questionne la carte sur l'état d'une
sortie. Celle-ci renvoie l'information dans le terminal de puredata
!, f 61;
#X text -30 675 - PWM et PWM_ALL permettent de régler l'INTENSITÉ
(entre 0 et 1) d'une sortie ou de l'ensemble des sorties de la carte.
;
#X text -30 711 - OE est un paramètre spécial du contrôleur de LED
: il agit comme un oscillateur PWM sur l'ENSEMBLE des sorties d'UNE
carte (1-24 ou 25-48) \, et PAR DESSUS les signaux PWM ou OUTPUT. Pas
franchement utile à première vue \, il peut aussi exister comme un
LFO hardware (voir TONE) \, ou bien conjointement à la commande OUTPUT
pour contrôler alternativement les sorties. Ici \, on contrôle la
période et le ratio.;
#X floatatom 168 36 5 0 0 0 - - -;
#X obj 168 13 r pdforceoff;
#X obj 579 164 symbol;
#X obj 579 188 pack s f f;
#X obj 579 235 s lowlevel_outlet;
#X obj 579 399 symbol;
#X obj 579 470 s lowlevel_outlet;
#X obj 579 423 pack s f;
#X obj 323 451 symbol;
#X obj 323 475 pack s f f;
#X obj 323 520 s lowlevel_outlet;
#X obj 117 468 symbol;
#X obj 117 539 s lowlevel_outlet;
#X obj 117 492 pack s f;
#X msg 117 515 \$1 \$2;
#X obj -84 405 symbol;
#X obj -84 476 s lowlevel_outlet;
#X obj -84 429 pack s f;
#X msg -84 452 \$1 \$2;
#X obj -173 143 symbol;
#X msg -173 190 \$1 \$2 \$3;
#X obj -173 167 pack s f f;
#X obj -173 214 s lowlevel_outlet;
#X msg 323 498 sendtyped \$1 ff \$2 \$3;
#X msg 579 141 /suraig/ll/pwm;
#X msg 579 376 /suraig/ll/pwm_all;
#X msg 323 428 /suraig/ll/oe;
#X msg 117 445 /suraig/ll/output_state;
#X msg -84 382 /suraig/ll/output_all;
#X msg -173 120 /suraig/ll/output;
#X msg 579 211 sendtyped \$1 ii \$2 \$3;
#X msg 579 446 sendtyped \$1 i \$2;
#X obj 477 304 * 2;
#X obj 579 94 t b a;
#X obj 579 118 t b a;
#X obj 579 353 t b a;
#X obj 323 381 t b a;
#X obj 323 405 t b a;
#X obj 117 423 t b a;
#X obj -84 359 t b a;
#X obj -173 73 t b a;
#X obj -173 97 t b a;
#X obj 477 281 ctlin 1;
#X connect 2 0 3 0;
#X connect 2 0 65 0;
#X connect 5 0 1 0;
#X connect 6 0 71 0;
#X connect 7 0 70 0;
#X connect 9 0 69 0;
#X connect 11 0 68 0;
#X connect 13 0 64 0;
#X connect 14 0 4 0;
#X connect 14 0 63 0;
#X connect 17 0 18 0;
#X connect 18 0 6 0;
#X connect 18 0 7 0;
#X connect 18 0 9 0;
#X connect 18 0 11 0;
#X connect 18 0 13 0;
#X connect 18 0 14 0;
#X connect 18 0 2 0;
#X connect 18 0 19 0;
#X connect 18 0 22 0;
#X connect 19 0 20 0;
#X connect 19 0 67 0;
#X connect 22 0 23 0;
#X connect 22 0 66 0;
#X connect 30 0 6 0;
#X connect 30 0 7 0;
#X connect 30 0 9 0;
#X connect 30 0 13 0;
#X connect 30 0 14 0;
#X connect 30 0 2 0;
#X connect 30 0 19 0;
#X connect 30 0 22 0;
#X connect 31 0 30 0;
#X connect 32 0 33 0;
#X connect 33 0 60 0;
#X connect 35 0 37 0;
#X connect 37 0 61 0;
#X connect 38 0 39 0;
#X connect 39 0 53 0;
#X connect 41 0 43 0;
#X connect 43 0 44 0;
#X connect 44 0 42 0;
#X connect 45 0 47 0;
#X connect 47 0 48 0;
#X connect 48 0 46 0;
#X connect 49 0 51 0;
#X connect 50 0 52 0;
#X connect 51 0 50 0;
#X connect 53 0 40 0;
#X connect 54 0 32 0;
#X connect 55 0 35 0;
#X connect 56 0 38 0;
#X connect 57 0 41 0;
#X connect 58 0 45 0;
#X connect 59 0 49 0;
#X connect 60 0 34 0;
#X connect 61 0 36 0;
#X connect 62 0 2 0;
#X connect 63 0 54 0;
#X connect 63 1 33 2;
#X connect 64 0 54 0;
#X connect 64 1 33 1;
#X connect 65 0 55 0;
#X connect 65 1 37 1;
#X connect 66 0 56 0;
#X connect 66 1 39 2;
#X connect 67 0 56 0;
#X connect 67 1 39 1;
#X connect 68 0 57 0;
#X connect 68 1 43 1;
#X connect 69 0 58 0;
#X connect 69 1 47 1;
#X connect 70 0 59 0;
#X connect 70 1 51 2;
#X connect 71 0 59 0;
#X connect 71 1 51 1;
#X connect 72 0 62 0;
#X coords 0 -1 1 1 444 226 2 100 100;
#X restore 403 156 pd lowlevel_commands;
#N canvas 343 1353 961 585 main_commands 0;
#X obj 354 101 cnv 15 100 60 empty empty MAIN_commands 20 12 0 12 -262144
-1 0;
#X obj 16 551 bendin;
#X obj 17 749 outlet;
#X obj 17 728 r main_outlet;
#X obj 105 136 nbx 3 14 0 47 0 0 empty empty sortie 0 -8 0 10 -4034
-1 -1 0 256;
#X obj 146 136 nbx 3 14 0 255 0 0 empty empty vélocité 0 -8 0 10
-261234 -1 -1 0 256;
#X text 103 102 COIL;
#X obj 108 202 hsl 128 15 0.01 2000 1 0 empty empty value -2 -8 0 10
-261234 -1 -1 0 0;
#X floatatom 105 220 5 0 0 0 - - -;
#X text 103 167 TONE;
#X obj 289 287 nbx 3 14 0 47 0 0 empty empty sortie 0 -8 0 10 -4034
-1 -1 0 256;
#X obj 330 287 nbx 3 14 0 47 0 0 empty empty sortie2 0 -8 0 10 -4034
-1 -1 0 256;
#X text 287 253 MOTOR_BRAKE;
#X obj 395 287 nbx 3 14 0 47 0 0 empty empty sortie 0 -8 0 10 -4034
-1 -1 0 256;
#X obj 436 287 nbx 3 14 0 47 0 0 empty empty sortie2 0 -8 0 10 -4034
-1 -1 0 256;
#X text 393 253 MOTOR_COAST;
#X obj 106 286 nbx 3 14 0 47 0 0 empty empty sortie 0 -8 0 10 -4034
-1 -1 0 256;
#X obj 147 286 nbx 3 14 0 47 0 0 empty empty sortie2 0 -8 0 10 -4034
-1 -1 0 256;
#X text 104 252 MOTOR;
#X obj 195 286 hsl 64 15 -255 255 0 0 empty empty ratio -2 -8 0 10
-261234 -1 -1 0 0;
#X floatatom 192 304 5 0 0 0 - - -;
#X text 371 122 série de commandes de haut niveau pour des usages
variés., f 18;
#X obj 105 13 r pdreset;
#X floatatom 105 36 5 0 0 0 - - -;
#X text 204 621 DESCRIPTION :;
#X text 70 549 j'hésite à retirer ce truc mais c'est rigolo, f 12
;
#X text 204 657 - COIL est une commande pour jouer avec des bobines
\, branchées sur une seule sortie. Ici on règle l'index de SORTIE
\, et la vélocité (pour être compatible avec le midi). Une vélocité
supérieure à 0 active la bobine \, et une vélocité de 0 la referme.
Permet de jouer à plusieurs aussi (activer DEBUG pour avoir des retours
de l'usage). NB : la bobine est énergisée à son maximum pendant
les premiers temps \, uis est relachée à un RATIO PWM qui l'empêche
de chauffer.;
#X text 204 784 - TONE est une fonction expérimentale et buggée :
elle agît comme un ampli CLASSE D sur la commande OE pour générer
soit un LFO \, soit une note. Précisément \, la valeur gère la VARIATION
du RATIO d'un signal PWM appliqué sur OE. Il est possible de relire
plein de fois cette phrase pour comprendre \, ou bien de regarder sur
wikipedia !, f 61;
#X text 204 872 - MOTOR est une commande pour jouer avec un moteur
branché (attention !) à DEUX SORTIES. IMPORTANT : elles doivent non
seulement se suivre telles qu'elles correspondent aux OUT1/OUT2 ou
OUT3/OUT4 des drivers. Facile : 1-2 \, 3-4 MAIS PAS 2-3 \, etc. RATIO
permet de régler l'INTENSITÉ du signal envoyé au moteur.;
#X text 204 961 - MOTOR_BRAKE et MOTOR_COAST permettent de stopper
un moteur de deux façons différentes : soit on le braque pour l'arrêter
net \, soit on le laisse ralentir et s'arrêter de lui-même avec COAST.
;
#X floatatom 168 36 5 0 0 0 - - -;
#X obj 168 13 r pdforceoff;
#X obj 539 277 symbol;
#X obj 539 348 s main_outlet;
#X msg 539 324 \$1 \$2 \$3;
#X obj 539 301 pack s f f;
#X msg 539 254 /suraig/motor_coast;
#X obj 422 433 symbol;
#X obj 422 504 s main_outlet;
#X msg 422 480 \$1 \$2 \$3;
#X obj 422 457 pack s f f;
#X msg 422 410 /suraig/motor_brake;
#X obj 257 500 symbol;
#X obj 257 571 s main_outlet;
#X msg 257 477 /suraig/motor;
#X obj 257 524 pack s f f f;
#X obj 21 403 symbol;
#X obj 21 474 s main_outlet;
#X msg 21 380 /suraig/tone;
#X obj 21 427 pack s f;
#X obj -8 197 symbol;
#X obj -8 267 s main_outlet;
#X msg -8 244 \$1 \$2 \$3;
#X msg -8 174 /suraig/coil;
#X msg 21 450 sendtyped \$1 f \$2;
#X msg 257 547 sendtyped \$1 iii \$2 \$3 \$4;
#X obj 15 43 notein;
#X floatatom 15 65 5 0 0 0 - - -;
#X floatatom 61 64 5 0 0 0 - - -;
#X floatatom 61 43 5 0 0 0 - - -;
#X obj -8 302 print debug_coil;
#X obj -8 152 t b a;
#X obj 21 358 t b a;
#X obj 257 454 t b a;
#X obj 257 430 t b a;
#X obj 257 406 t b a;
#X obj 422 362 t b a;
#X obj 422 386 t b a;
#X obj 539 207 t b a;
#X obj 539 231 t b a;
#X obj -6 103 bng 15 250 50 0 empty empty empty 17 7 0 10 -262144 -1
-1;
#X obj -8 221 pack s f f;
#X obj 16 575 / 32;
#X obj 16 598 - 256;
#X connect 1 0 72 0;
#X connect 3 0 2 0;
#X connect 4 0 61 0;
#X connect 5 0 71 2;
#X connect 7 0 8 0;
#X connect 7 0 62 0;
#X connect 10 0 67 0;
#X connect 11 0 66 0;
#X connect 13 0 69 0;
#X connect 14 0 68 0;
#X connect 16 0 65 0;
#X connect 17 0 64 0;
#X connect 19 0 20 0;
#X connect 19 0 63 0;
#X connect 22 0 23 0;
#X connect 23 0 4 0;
#X connect 23 0 5 0;
#X connect 23 0 7 0;
#X connect 23 0 16 0;
#X connect 23 0 17 0;
#X connect 23 0 19 0;
#X connect 23 0 10 0;
#X connect 23 0 11 0;
#X connect 23 0 13 0;
#X connect 23 0 14 0;
#X connect 30 0 4 0;
#X connect 30 0 5 0;
#X connect 30 0 16 0;
#X connect 30 0 17 0;
#X connect 30 0 19 0;
#X connect 31 0 30 0;
#X connect 32 0 35 0;
#X connect 34 0 33 0;
#X connect 35 0 34 0;
#X connect 36 0 32 0;
#X connect 37 0 40 0;
#X connect 39 0 38 0;
#X connect 40 0 39 0;
#X connect 41 0 37 0;
#X connect 42 0 45 0;
#X connect 44 0 42 0;
#X connect 45 0 55 0;
#X connect 46 0 49 0;
#X connect 48 0 46 0;
#X connect 49 0 54 0;
#X connect 50 0 71 0;
#X connect 52 0 51 0;
#X connect 52 0 60 0;
#X connect 53 0 50 0;
#X connect 54 0 47 0;
#X connect 55 0 43 0;
#X connect 56 0 57 0;
#X connect 56 1 58 0;
#X connect 56 2 59 0;
#X connect 57 0 4 0;
#X connect 58 0 5 0;
#X connect 61 0 53 0;
#X connect 61 1 71 1;
#X connect 62 0 48 0;
#X connect 62 1 49 1;
#X connect 63 0 44 0;
#X connect 63 1 45 3;
#X connect 64 0 44 0;
#X connect 64 1 45 2;
#X connect 65 0 44 0;
#X connect 65 1 45 1;
#X connect 66 0 41 0;
#X connect 66 1 40 2;
#X connect 67 0 41 0;
#X connect 67 1 40 1;
#X connect 68 0 36 0;
#X connect 68 1 35 2;
#X connect 69 0 36 0;
#X connect 69 1 35 1;
#X connect 70 0 61 0;
#X connect 71 0 52 0;
#X connect 72 0 73 0;
#X connect 73 0 19 0;
#X coords 0 -1 1 1 391 225 2 100 100;
#X restore 6 156 pd main_commands;
#X text 861 213 NB : OUVRIR LES CANVAS POUR VOIR LES DESCRIPTIONS,
f 17;
#X obj 8 9 bng 30 250 50 0 empty empty empty 32 7 0 10 -4034 -262144
-1;
#X text 41 4 Connecter à l'IP du module :;
#X obj 351 21 r oscinput_bdles;
#X obj 403 386 s oscinput_bdles;
#X obj 6 386 s oscinput_bdles;
#X obj 208 21 r oscinput_onepacket;
#X obj 455 112 s oscinput_onepacket;
#X msg 44 21 172.24.1.143;
#X connect 0 0 1 0;
#X connect 0 1 2 0;
#X connect 0 2 3 0;
#X connect 7 0 4 0;
#X connect 7 1 5 0;
#X connect 7 2 6 0;
#X connect 8 0 9 0;
#X connect 8 1 10 0;
#X connect 12 0 22 0;
#X connect 13 0 19 0;
#X connect 14 0 20 0;
#X connect 16 0 23 0;
#X connect 18 0 11 2;
#X connect 21 0 11 1;
#X connect 23 0 11 0;
