#N canvas 673 96 683 672 10;
#X obj 342 280 list prepend send;
#X obj 342 302 list trim;
#X obj 342 348 netsend -u -b;
#X msg 466 346 disconnect;
#X msg 466 324 connect 172.24.1.148 12345;
#X obj 21 17 notein;
#X floatatom 21 39 5 0 0 0 - - -;
#X floatatom 67 38 5 0 0 0 - - -;
#X floatatom 67 17 5 0 0 0 - - -;
#X obj 337 58 netreceive -u -b;
#X obj 337 80 oscparse;
#X obj 337 102 list trim;
#X msg 561 64 listen 0;
#X msg 561 42 listen 12345;
#X obj 376 168 print debug;
#X msg 21 104 set /main/coil;
#X obj 21 482 t a a a;
#X msg 21 504 set /main/oe;
#X obj 24 420 hsl 128 15 0 1 0 0 empty empty empty -2 -8 0 10 -262144
-1 -1 0 1;
#X obj 164 420 hsl 128 15 0.001 10 1 0 empty empty empty -2 -8 0 10
-262144 -1 -1 0 0;
#X obj 550 490 t a a a;
#X msg 550 468 1;
#X msg 550 512 format i;
#X obj 342 236 receive oscinput;
#X obj 21 148 send oscinput;
#X obj 21 548 send oscinput;
#X obj 342 437 list prepend send;
#X obj 342 459 list trim;
#X obj 342 503 netsend -u -b;
#X msg 468 390 disconnect;
#X msg 468 368 connect 255.255.255.255 12345;
#X obj 342 258 oscformat -s /main;
#X obj 550 556 send oscdebug;
#X obj 342 378 receive oscdebug;
#X obj 561 187 bng 15 250 50 0 empty empty empty 17 7 0 10 -262144
-1 -1;
#X obj 337 146 print main;
#X msg 161 439 bang;
#X floatatom 199 439 5 0 0 0 - - -;
#X floatatom 21 439 5 0 0 0 - - -;
#X obj 22 281 t a a a;
#X obj 25 219 hsl 128 15 0 1 0 0 empty empty empty -2 -8 0 10 -262144
-1 -1 0 1;
#X obj 22 347 send oscinput;
#X floatatom 22 238 5 0 0 0 - - -;
#X msg 22 303 set /main/pwm_all;
#X msg 21 526 format ff;
#X msg 22 325 format f;
#X obj 22 259 pack 0;
#X obj 22 642 send oscinput;
#X obj 22 601 bng 15 250 50 0 empty empty empty 17 7 0 10 -262144 -1
-1;
#X obj 201 601 bng 15 250 50 0 empty empty empty 17 7 0 10 -262144
-1 -1;
#X obj 340 601 bng 15 250 50 0 empty empty empty 17 7 0 10 -262144
-1 -1;
#X obj 508 601 bng 15 250 50 0 empty empty empty 17 7 0 10 -262144
-1 -1;
#X msg 201 620 set /tools/hardreset;
#X msg 340 620 set /tools/softreset;
#X msg 508 620 set /tools/connect;
#X msg 550 534 set /tools/debug;
#X obj 342 397 oscformat -s /tools;
#X obj 201 642 send oscdebug;
#X obj 340 642 send oscdebug;
#X obj 508 642 send oscdebug;
#X obj 162 281 t a a a;
#X obj 165 219 hsl 128 15 0.1 2000 1 0 empty empty empty -2 -8 0 10
-262144 -1 -1 0 1;
#X obj 162 347 send oscinput;
#X floatatom 162 238 5 0 0 0 - - -;
#X msg 162 325 format f;
#X obj 162 259 pack 0;
#X msg 162 303 set /main/tone;
#X obj 21 60 pack 0 0;
#X msg 21 126 format ii;
#X obj 21 82 t a a a;
#X obj 21 460 pack 0 0;
#X floatatom 119 36 5 0 0 0 - - -;
#X floatatom 164 36 5 0 0 0 - - -;
#X msg 119 103 set /main/coil;
#X obj 119 147 send oscinput;
#X obj 119 59 pack 0 0;
#X msg 119 125 format ii;
#X obj 119 81 t a a a;
#X obj 119 17 bng 15 250 50 0 empty empty empty 17 7 0 10 -262144 -1
-1;
#X msg 22 620 set /main/forceoff_all;
#X floatatom 218 39 5 0 0 0 - - -;
#X floatatom 264 38 5 0 0 0 - - -;
#X floatatom 264 17 5 0 0 0 - - -;
#X obj 218 17 ctlin;
#X floatatom 218 82 0 0 0 0 - - -;
#X obj 218 60 pow -1;
#X obj 250 120 midiin;
#X floatatom 250 142 0 0 0 0 - - -;
#X floatatom 283 167 0 0 0 0 - - -;
#X obj 337 124 route main debug ack;
#X obj 415 146 print ack;
#X obj 550 447 bng 15 250 50 0 empty empty empty 17 7 0 10 -262144
-1 -1;
#X connect 0 0 1 0;
#X connect 1 0 2 0;
#X connect 3 0 2 0;
#X connect 4 0 2 0;
#X connect 5 0 6 0;
#X connect 5 1 7 0;
#X connect 5 2 8 0;
#X connect 6 0 67 0;
#X connect 7 0 67 1;
#X connect 9 0 10 0;
#X connect 10 0 11 0;
#X connect 11 0 89 0;
#X connect 12 0 9 0;
#X connect 13 0 9 0;
#X connect 15 0 24 0;
#X connect 16 0 25 0;
#X connect 16 1 17 0;
#X connect 16 2 44 0;
#X connect 17 0 25 0;
#X connect 18 0 38 0;
#X connect 18 0 70 0;
#X connect 19 0 36 0;
#X connect 19 0 37 0;
#X connect 19 0 70 1;
#X connect 20 1 55 0;
#X connect 20 2 22 0;
#X connect 21 0 20 0;
#X connect 21 0 32 0;
#X connect 22 0 32 0;
#X connect 23 0 31 0;
#X connect 26 0 27 0;
#X connect 27 0 28 0;
#X connect 29 0 28 0;
#X connect 30 0 28 0;
#X connect 31 0 0 0;
#X connect 33 0 56 0;
#X connect 34 0 4 0;
#X connect 34 0 30 0;
#X connect 34 0 13 0;
#X connect 36 0 70 0;
#X connect 39 0 41 0;
#X connect 39 1 43 0;
#X connect 39 2 45 0;
#X connect 40 0 42 0;
#X connect 40 0 46 0;
#X connect 43 0 41 0;
#X connect 44 0 25 0;
#X connect 45 0 41 0;
#X connect 46 0 39 0;
#X connect 48 0 79 0;
#X connect 48 0 47 0;
#X connect 49 0 52 0;
#X connect 49 0 57 0;
#X connect 50 0 53 0;
#X connect 50 0 58 0;
#X connect 51 0 54 0;
#X connect 51 0 59 0;
#X connect 52 0 57 0;
#X connect 53 0 58 0;
#X connect 54 0 59 0;
#X connect 55 0 32 0;
#X connect 56 0 26 0;
#X connect 60 0 62 0;
#X connect 60 1 66 0;
#X connect 60 2 64 0;
#X connect 61 0 63 0;
#X connect 61 0 65 0;
#X connect 64 0 62 0;
#X connect 65 0 60 0;
#X connect 66 0 62 0;
#X connect 67 0 69 0;
#X connect 68 0 24 0;
#X connect 69 0 24 0;
#X connect 69 1 15 0;
#X connect 69 2 68 0;
#X connect 70 0 16 0;
#X connect 71 0 75 0;
#X connect 72 0 75 1;
#X connect 73 0 74 0;
#X connect 75 0 77 0;
#X connect 76 0 74 0;
#X connect 77 0 74 0;
#X connect 77 1 73 0;
#X connect 77 2 76 0;
#X connect 78 0 71 0;
#X connect 79 0 47 0;
#X connect 80 0 85 0;
#X connect 83 0 80 0;
#X connect 83 1 81 0;
#X connect 83 2 82 0;
#X connect 84 0 19 0;
#X connect 85 0 84 0;
#X connect 86 0 87 0;
#X connect 86 1 88 0;
#X connect 89 0 35 0;
#X connect 89 1 14 0;
#X connect 89 2 90 0;
#X connect 91 0 21 0;
