#N canvas 473 296 874 472 10;
#N canvas 5 96 1340 672 osc_interface 0;
#X obj 442 105 cnv 15 100 60 empty empty empty 20 12 0 10 -262144 -1
0;
#X obj 17 18 inlet connect;
#X msg 473 311 connect;
#X msg 473 353 \$1 \$2 \$3;
#X obj 473 332 pack s s f;
#X symbolatom 104 125 16 0 0 0 - - -;
#X obj 104 51 loadbang;
#X obj 473 261 t b b s b;
#X obj 17 44 symbol;
#X obj 17 69 t b s;
#X text 430 128 ce petit rectangle gère la connexion réseau avec
le module OSC, f 18;
#X text 75 485 DESCRIPTION :;
#X text 74 511 - ce canvas concentre les commandes qui gèrent la communication
avec les cartes. Il est nécessaire de lui donner l'adresse IP que
la carte lui communique au démarrage pour un fonctionnement assuré
de part et d'autre. À gauche du canvas \, les bidouilles permettent
d'organiser l'ordre des commandes envoyées pour ouvrir et fermer les
connections.;
#X obj 225 17 inlet in_onepacket;
#X obj 762 14 inlet in_bundle;
#X text 324 104 oneshot;
#X text 495 103 bundles;
#X obj 473 479 udpsend;
#X msg 473 456 disconnect;
#X obj 207 126 tgl 15 0 empty empty 1=connected 20 8 0 8 -4034 -257985
-1 1 1;
#X obj 1099 144 + 1;
#X obj 831 144 + 1;
#X msg 784 220 0;
#X obj 784 169 sel 0;
#X obj 1130 144 sel 0;
#X obj 1099 195 mod 32;
#X msg 1144 171 32;
#X obj 1069 144 f;
#X obj 784 144 f;
#X obj 784 119 bang;
#X obj 1069 118 bang;
#X obj 784 194 delay 5 1 msec;
#X text 816 117 Envoie un paquet (bundle) chaque N msec;
#X text 982 73 FABRIQUE DE BUNDLES;
#X msg 879 193 delay \$1 msec;
#X obj 879 216 print;
#X obj 1144 218 print;
#X msg 1144 195 \$1 messages max per packet;
#X text 1105 117 N messages maximum par paquet (bundle);
#X text 435 431 GESTION RESEAU SORTANT;
#X floatatom 241 160 3 0 0 0 - - -;
#X floatatom 272 160 3 0 0 0 - - -;
#X floatatom 303 160 3 0 0 0 - - -;
#X floatatom 334 160 3 0 0 0 - - -;
#X floatatom 241 369 10 0 0 1 millisecond_delay - -;
#X obj 35 323 pipelist;
#X obj 241 253 unpack 0 0 0 0 0;
#X floatatom 366 160 8 0 0 0 - - -;
#X obj 167 230 route received from;
#X floatatom 167 159 5 0 0 0 - - -;
#X text 105 318 If the OSC packet has a timetag \, [pipelist] will
delay it until the time occurs;
#X text 121 281 [unpackOSC] parses lists of floats (only integers on
[0..255]) as OSC packets.;
#X obj 35 357 routeOSC /ack /debug /main;
#X obj 35 380 print ack;
#X obj 86 403 print debug;
#X obj 137 427 print debug;
#X obj 188 451 print;
#X text 103 160 RECEIVED;
#X text 200 153 bytes;
#X text 206 167 from;
#X text 20 192 GESTION RESEAU ENTRANT;
#X obj 104 74 symbol 255.255.255.255;
#X msg 530 311 9000;
#X obj 35 212 udpreceive 9000;
#X obj 1159 417 bng 15 250 50 0 empty empty empty 17 7 0 10 -262144
-1 -1;
#X floatatom 1241 417 4 0 0 0 - - -;
#X floatatom 1296 534 5 0 0 0 - - -;
#X obj 1131 530 bng 15 250 50 0 empty empty empty 17 7 0 10 -262144
-1 -1;
#X obj 1159 616 print;
#X obj 1159 528 symbol;
#X msg 1159 503 /tools/count1;
#X msg 1159 583 \$1 \$2;
#X obj 1159 558 pack s f;
#X obj 1159 446 metro 100;
#X obj 760 486 cnv 15 100 40 empty empty empty 20 12 0 14 -4034 -66577
0;
#X obj 787 497 packOSC;
#X msg 898 303 [;
#X msg 850 303 ];
#X text 764 305 close bundle;
#X floatatom 826 526 5 0 0 0 - - -;
#X text 861 526 bundle depth;
#X msg 869 431 typetags \$1;
#X obj 869 413 tgl 15 0 empty empty empty 17 7 0 10 -257985 -258113
-1 0 1;
#X text 941 431 typetags are on by default;
#X text 947 386 set buffer size (default is 64000 bytes);
#X text 929 302 open bundle;
#X obj 607 38 loadbang;
#X msg 573 211 /tools/connect;
#X obj 787 585 print >>;
#X obj 787 563 spigot;
#X obj 831 563 tgl 15 0 empty empty raw 17 7 0 10 -257985 -258113 -1
0 1;
#X text 655 429 CREATION DU PAQUET OSC;
#X obj 16 252 cnv 15 100 60 empty empty empty 20 12 0 14 -4034 -66577
0;
#X obj 35 266 unpackOSC;
#X text 572 191 envoie à la carte notre ip;
#X text 102 104 CONNECT TO:;
#X msg 869 388 bufsize 4096;
#X obj 850 266 t b b;
#X obj 607 61 t b b b;
#X obj 573 234 t b b a;
#X obj 225 41 t b b a;
#X msg 879 170 3;
#X connect 1 0 8 0;
#X connect 2 0 4 0;
#X connect 3 0 17 0;
#X connect 4 0 3 0;
#X connect 5 0 7 0;
#X connect 6 0 61 0;
#X connect 7 1 2 0;
#X connect 7 2 4 1;
#X connect 7 3 62 0;
#X connect 7 3 18 0;
#X connect 8 0 9 0;
#X connect 9 0 87 0;
#X connect 9 0 61 0;
#X connect 9 1 61 1;
#X connect 13 0 100 0;
#X connect 14 0 30 0;
#X connect 14 0 29 0;
#X connect 14 0 75 0;
#X connect 17 0 19 0;
#X connect 18 0 17 0;
#X connect 20 0 25 0;
#X connect 21 0 28 1;
#X connect 22 0 27 1;
#X connect 22 0 28 1;
#X connect 22 0 97 0;
#X connect 23 0 31 0;
#X connect 24 0 97 0;
#X connect 25 0 24 0;
#X connect 25 0 27 1;
#X connect 26 0 25 1;
#X connect 26 0 37 0;
#X connect 27 0 20 0;
#X connect 28 0 21 0;
#X connect 28 0 23 0;
#X connect 29 0 28 0;
#X connect 30 0 27 0;
#X connect 31 0 22 0;
#X connect 34 0 35 0;
#X connect 37 0 36 0;
#X connect 45 0 52 0;
#X connect 46 0 40 0;
#X connect 46 1 41 0;
#X connect 46 2 42 0;
#X connect 46 3 43 0;
#X connect 46 4 47 0;
#X connect 48 0 49 0;
#X connect 48 1 46 0;
#X connect 52 0 53 0;
#X connect 52 1 54 0;
#X connect 52 2 55 0;
#X connect 52 3 56 0;
#X connect 61 0 5 0;
#X connect 62 0 4 2;
#X connect 63 0 93 0;
#X connect 63 1 48 0;
#X connect 64 0 73 0;
#X connect 65 0 73 1;
#X connect 66 0 72 1;
#X connect 67 0 72 0;
#X connect 69 0 72 0;
#X connect 70 0 69 0;
#X connect 71 0 68 0;
#X connect 72 0 71 0;
#X connect 73 0 70 0;
#X connect 75 0 17 0;
#X connect 75 0 89 0;
#X connect 75 1 79 0;
#X connect 76 0 75 0;
#X connect 77 0 75 0;
#X connect 81 0 75 0;
#X connect 82 0 81 0;
#X connect 86 0 98 0;
#X connect 87 0 99 0;
#X connect 89 0 88 0;
#X connect 90 0 89 1;
#X connect 93 0 45 0;
#X connect 93 1 45 1;
#X connect 93 1 44 0;
#X connect 96 0 75 0;
#X connect 97 0 76 0;
#X connect 97 1 77 0;
#X connect 98 0 87 0;
#X connect 98 1 76 0;
#X connect 98 2 96 0;
#X connect 99 0 76 0;
#X connect 99 1 77 0;
#X connect 99 2 75 0;
#X connect 100 0 76 0;
#X connect 100 1 77 0;
#X connect 100 2 75 0;
#X connect 101 0 31 1;
#X connect 101 0 34 0;
#X coords 0 -1 1 1 445 86 2 100 100;
#X restore 7 45 pd osc_interface;
#N canvas 3 96 683 672 tools_commands 0;
#X obj 324 101 cnv 15 100 60 empty empty TOOLS_commands 20 12 0 12
-262144 -1 0;
#X obj 106 107 bng 15 250 50 0 empty empty -FORCEOFF_ALL 17 7 0 10
-262144 -1 -1;
#X obj 207 127 bng 30 250 50 0 empty empty -HARDRESET 32 7 0 10 -258113
-262144 -1;
#X obj 106 135 bng 15 250 50 0 empty empty -SOFTRESET 17 7 0 10 -262144
-1 -1;
#X obj 294 589 outlet;
#X obj 216 105 tgl 15 0 empty empty -DEBUG 17 7 0 10 -4160 -262144
-1 0 1;
#X floatatom 206 105 1 0 0 0 - - -;
#X obj 91 259 s tools_outlet;
#X obj 294 565 r tools_outlet;
#X obj 251 259 s tools_outlet;
#X obj 392 259 s tools_outlet;
#X obj 535 265 s tools_outlet;
#X obj 536 53 s pdreset;
#X obj 231 35 r pdreset;
#X floatatom 231 58 5 0 0 0 - - -;
#X text 342 122 commandes système \, pour communiquer avec la carte.
, f 18;
#X text 34 359 DESCRIPTION :;
#X text 34 395 - FORCEOFF_ALL permet de remettre à zéro l'état des
SORTIES *et* des signaux PWM de la carte.;
#X text 34 464 - SOFTRESET permet de réinitialiser l'ensemble des
commandes de la carte (intermédiaire).;
#X text 34 500 - HARDRESET permet de rebooter la carte.;
#X text 34 430 - DEBUG active un mode bavard : on peut visualiser tout
ce que reçoit et envoie la carte., f 61;
#X obj 536 75 s pdforceoff;
#X msg 251 235 /tools/softreset;
#X msg 91 235 /tools/forceoff_all;
#X msg 392 235 /tools/hardreset;
#X msg 535 171 /tools/debug;
#X obj 535 218 pack s f;
#X msg 535 241 \$1 \$2;
#X obj 535 194 symbol;
#X obj -45 156 f;
#X obj -7 156 + 1;
#X obj 49 155 sel 0;
#X obj -37 279 s tools_outlet;
#X obj 106 165 bng 15 250 50 0 empty empty -COUNT 17 7 0 10 -262144
-1 -1;
#X msg -45 210 /tools/count 1;
#X obj 172 165 nbx 6 14 1 100000 0 0 empty empty nb 0 -8 0 10 -4034
-1 -1 1 256;
#X msg 49 182 stop;
#X obj 242 165 nbx 4 14 1 1000 0 0 empty empty delay 0 -8 0 10 -4034
-1 -1 1 256;
#X obj -7 182 mod 1000;
#X obj -45 115 metro 10;
#X obj 13 315 s oscinput_bdles;
#X obj 410 323 metro 10;
#X obj 537 358 + 1;
#X obj 502 358 f;
#X obj 568 358 sel 0;
#X msg 583 388 stop;
#X obj 306 165 bng 15 250 50 0 empty empty -STATES 17 7 0 10 -262144
-1 -1;
#X obj 537 387 mod 48;
#X obj 439 455 s tools_outlet;
#X msg 439 431 sendtyped /respi/ll/output_state i \$1;
#X connect 1 0 23 0;
#X connect 1 0 21 0;
#X connect 2 0 24 0;
#X connect 2 0 12 0;
#X connect 3 0 22 0;
#X connect 3 0 12 0;
#X connect 5 0 6 0;
#X connect 5 0 26 1;
#X connect 5 0 25 0;
#X connect 8 0 4 0;
#X connect 13 0 14 0;
#X connect 14 0 5 0;
#X connect 22 0 9 0;
#X connect 23 0 7 0;
#X connect 24 0 10 0;
#X connect 25 0 28 0;
#X connect 26 0 27 0;
#X connect 27 0 11 0;
#X connect 28 0 26 0;
#X connect 29 0 30 0;
#X connect 29 0 34 0;
#X connect 30 0 38 0;
#X connect 31 0 36 0;
#X connect 33 0 35 0;
#X connect 33 0 37 0;
#X connect 33 0 39 0;
#X connect 34 0 40 0;
#X connect 35 0 38 1;
#X connect 36 0 39 0;
#X connect 37 0 39 1;
#X connect 38 0 29 1;
#X connect 38 0 31 0;
#X connect 39 0 29 0;
#X connect 41 0 43 0;
#X connect 42 0 47 0;
#X connect 43 0 42 0;
#X connect 44 0 45 0;
#X connect 45 0 41 0;
#X connect 46 0 41 0;
#X connect 47 0 43 1;
#X connect 47 0 44 0;
#X connect 47 0 49 0;
#X connect 49 0 48 0;
#X coords 0 -1 1 1 360 86 2 100 100;
#X restore 458 21 pd tools_commands;
#N canvas 170 157 1024 486 main_commands 0;
#X obj 354 101 cnv 15 100 60 empty empty MAIN_commands 20 12 0 12 -262144
-1 0;
#X obj 105 136 nbx 3 14 0 127 0 0 empty empty sortie 0 -8 0 10 -4034
-1 -1 0 256;
#X obj 146 136 nbx 3 14 0 255 0 0 empty empty vélocité 0 -8 0 10
-261234 -1 -1 0 256;
#X text 103 102 COIL;
#X text 371 122 série de commandes de haut niveau pour des usages
variés., f 18;
#X obj 199 13 r pdreset;
#X floatatom 199 36 5 0 0 0 - - -;
#X floatatom 262 36 5 0 0 0 - - -;
#X obj 262 13 r pdforceoff;
#X obj 114 431 symbol;
#X obj 114 501 s main_outlet;
#X msg 114 408 /respi/coil;
#X obj 109 43 notein;
#X floatatom 109 65 5 0 0 0 - - -;
#X floatatom 155 64 5 0 0 0 - - -;
#X floatatom 155 43 5 0 0 0 - - -;
#X obj 114 386 t b a;
#X obj 116 337 bng 15 250 50 0 empty empty empty 17 7 0 10 -262144
-1 -1;
#X obj 114 455 pack s f f;
#X msg 114 478 sendtyped \$1 ii \$2 \$3;
#X obj 424 446 outlet;
#X obj 424 422 r main_outlet;
#X connect 1 0 16 0;
#X connect 2 0 18 2;
#X connect 5 0 6 0;
#X connect 6 0 1 0;
#X connect 6 0 2 0;
#X connect 7 0 1 0;
#X connect 7 0 2 0;
#X connect 8 0 7 0;
#X connect 9 0 18 0;
#X connect 11 0 9 0;
#X connect 12 0 13 0;
#X connect 12 1 14 0;
#X connect 12 2 15 0;
#X connect 13 0 1 0;
#X connect 14 0 2 0;
#X connect 16 0 11 0;
#X connect 16 1 18 1;
#X connect 17 0 16 0;
#X connect 18 0 19 0;
#X connect 19 0 10 0;
#X connect 21 0 20 0;
#X coords 0 -1 1 1 391 225 2 100 100;
#X restore 6 156 pd main_commands;
#X obj 8 9 bng 30 250 50 0 empty empty empty 32 7 0 10 -4034 -262144
-1;
#X text 41 4 Connecter à l'IP du module :;
#X obj 351 21 r oscinput_bdles;
#X obj 6 386 s oscinput_bdles;
#X obj 208 21 r oscinput_onepacket;
#X obj 458 112 s oscinput_onepacket;
#X msg 44 21 172.24.1.55;
#X connect 1 0 8 0;
#X connect 2 0 6 0;
#X connect 3 0 9 0;
#X connect 5 0 0 2;
#X connect 7 0 0 1;
#X connect 9 0 0 0;
