#N canvas 683 96 683 672 10;
#X obj 11 202 list prepend send;
#X obj 11 224 list trim;
#X obj 11 270 netsend -u -b;
#X msg 135 268 disconnect;
#X obj 11 158 receive oscinput;
#X obj 11 180 oscformat -s /main;
#X obj 11 27 netreceive -u -b;
#X obj 11 49 oscparse;
#X obj 11 71 list trim;
#X msg 154 33 listen 0;
#X msg 154 11 listen 12345;
#X obj 135 11 bng 15 250 50 0 empty empty empty 17 7 0 10 -262144 -1
-1;
#X obj 11 115 print main;
#X obj 11 93 route main debug ack;
#X obj 89 115 print ack;
#X msg 135 246 connect 127.0.0.1 12345;
#X floatatom 12 391 5 0 0 0 - - -;
#X obj 12 482 send oscinput;
#X obj 12 416 t a a a;
#X obj 12 372 bng 15 250 50 0 empty empty empty 17 7 0 10 -262144 -1
-1;
#X msg 12 438 set /ack;
#X msg 12 460 format i;
#X floatatom 354 295 5 0 0 0 - - -;
#X floatatom 399 295 5 0 0 0 - - -;
#X msg 327 423 set /main/coil;
#X obj 327 467 send oscinput;
#X obj 327 379 pack 0 0;
#X msg 327 445 format ii;
#X obj 327 401 t a a a;
#X obj 327 199 bng 15 250 50 0 empty empty empty 17 7 0 10 -262144
-1 -1;
#X obj 327 341 float;
#X obj 372 341 float;
#X obj 327 265 until;
#X obj 384 177 f;
#X obj 412 200 + 1;
#X obj 399 249 sel 0;
#X obj 278 341 sel 0;
#X obj 399 226 mod 30;
#X connect 0 0 1 0;
#X connect 1 0 2 0;
#X connect 3 0 2 0;
#X connect 4 0 5 0;
#X connect 5 0 0 0;
#X connect 6 0 7 0;
#X connect 7 0 8 0;
#X connect 8 0 13 0;
#X connect 9 0 6 0;
#X connect 10 0 6 0;
#X connect 11 0 10 0;
#X connect 11 0 15 0;
#X connect 13 0 12 0;
#X connect 13 2 14 0;
#X connect 13 2 36 0;
#X connect 15 0 2 0;
#X connect 16 0 18 0;
#X connect 18 0 17 0;
#X connect 18 1 20 0;
#X connect 18 2 21 0;
#X connect 19 0 16 0;
#X connect 20 0 17 0;
#X connect 21 0 17 0;
#X connect 22 0 30 1;
#X connect 23 0 31 1;
#X connect 24 0 25 0;
#X connect 26 0 28 0;
#X connect 27 0 25 0;
#X connect 28 0 25 0;
#X connect 28 1 24 0;
#X connect 28 2 27 0;
#X connect 29 0 32 0;
#X connect 30 0 26 0;
#X connect 30 0 36 1;
#X connect 31 0 26 1;
#X connect 32 0 30 0;
#X connect 32 0 31 0;
#X connect 32 0 33 0;
#X connect 33 0 34 0;
#X connect 34 0 37 0;
#X connect 35 0 32 1;
#X connect 36 0 32 0;
#X connect 37 0 33 1;
#X connect 37 0 35 0;
