#N canvas 0 1149 1201 827 10;
#X floatatom 51 473 5 0 0 0 - - -;
#X floatatom 67 495 5 0 0 0 - - -;
#X obj 51 448 notein;
#X obj 51 532 pack;
#N canvas 1600 1176 1600 804 hurgytronOSC 0;
#X obj 423 25 inlet;
#X text 467 24 entrée notes midi;
#X obj 423 74 route 0 1 2 3 4 5 6 7;
#X obj 405 671 r out_hurgytron;
#X obj 405 702 outlet;
#X obj 160 151 / 127;
#X obj 160 291 s out_hurgytron;
#X obj 160 222 symbol;
#X msg 160 198 /suraig/motor;
#X obj 160 175 t f f;
#X obj 327 151 / 127;
#X obj 327 291 s out_hurgytron;
#X obj 327 222 symbol;
#X msg 327 198 /suraig/motor;
#X obj 327 246 pack s 2 3 f;
#X obj 327 175 t f f;
#X obj 497 151 / 127;
#X obj 497 291 s out_hurgytron;
#X obj 497 222 symbol;
#X msg 497 198 /suraig/motor;
#X obj 497 175 t f f;
#X obj 667 151 / 127;
#X obj 667 291 s out_hurgytron;
#X obj 667 222 symbol;
#X msg 667 198 /suraig/motor;
#X obj 667 175 t f f;
#X obj 272 370 / 127;
#X obj 272 510 s out_hurgytron;
#X obj 272 441 symbol;
#X msg 272 417 /suraig/motor;
#X obj 272 394 t f f;
#X obj 446 370 / 127;
#X obj 446 510 s out_hurgytron;
#X obj 446 441 symbol;
#X msg 446 417 /suraig/motor;
#X obj 446 394 t f f;
#X obj 620 370 / 127;
#X obj 620 510 s out_hurgytron;
#X obj 620 441 symbol;
#X msg 620 417 /suraig/motor;
#X obj 620 394 t f f;
#X obj 792 370 / 127;
#X obj 792 510 s out_hurgytron;
#X obj 792 441 symbol;
#X msg 792 417 /suraig/motor;
#X obj 792 394 t f f;
#X obj 160 246 pack s 0 1 f;
#X obj 497 246 pack s 4 5 f;
#X obj 667 246 pack s 6 7 f;
#X obj 272 465 pack s 8 9 f;
#X obj 446 465 pack s 10 11 f;
#X obj 620 465 pack s 12 13 f;
#X obj 792 465 pack s 14 15 f;
#X msg 160 269 sendtyped \$1 iif \$2 \$3 \$4;
#X msg 327 269 sendtyped \$1 iif \$2 \$3 \$4;
#X msg 497 269 sendtyped \$1 iif \$2 \$3 \$4;
#X msg 667 269 sendtyped \$1 iif \$2 \$3 \$4;
#X msg 792 488 sendtyped \$1 iif \$2 \$3 \$4;
#X msg 620 488 sendtyped \$1 iif \$2 \$3 \$4;
#X msg 446 488 sendtyped \$1 iif \$2 \$3 \$4;
#X msg 272 488 sendtyped \$1 iif \$2 \$3 \$4;
#X obj 984 373 / 127;
#X obj 984 513 s out_hurgytron;
#X obj 984 444 symbol;
#X msg 984 420 /suraig/motor;
#X obj 984 397 t f f;
#X obj 1156 373 / 127;
#X obj 1156 513 s out_hurgytron;
#X obj 1156 444 symbol;
#X msg 1156 420 /suraig/motor;
#X obj 1156 397 t f f;
#X msg 1156 491 sendtyped \$1 iif \$2 \$3 \$4;
#X msg 984 491 sendtyped \$1 iif \$2 \$3 \$4;
#X obj 1344 370 / 127;
#X obj 1344 510 s out_hurgytron;
#X obj 1344 441 symbol;
#X msg 1344 417 /suraig/motor;
#X obj 1344 394 t f f;
#X obj 1516 370 / 127;
#X obj 1516 510 s out_hurgytron;
#X obj 1516 441 symbol;
#X msg 1516 417 /suraig/motor;
#X obj 1516 394 t f f;
#X msg 1516 488 sendtyped \$1 iif \$2 \$3 \$4;
#X msg 1344 488 sendtyped \$1 iif \$2 \$3 \$4;
#X obj 984 468 pack s 16 17 f;
#X obj 1156 468 pack s 18 19 f;
#X obj 1344 465 pack s 20 21 f;
#X obj 1516 465 pack s 22 23 f;
#X connect 0 0 2 0;
#X connect 2 0 5 0;
#X connect 2 1 10 0;
#X connect 2 2 16 0;
#X connect 2 3 21 0;
#X connect 2 4 26 0;
#X connect 2 4 61 0;
#X connect 2 5 31 0;
#X connect 2 5 66 0;
#X connect 2 6 36 0;
#X connect 2 6 73 0;
#X connect 2 7 41 0;
#X connect 2 7 78 0;
#X connect 3 0 4 0;
#X connect 5 0 9 0;
#X connect 7 0 46 0;
#X connect 8 0 7 0;
#X connect 9 0 8 0;
#X connect 9 1 46 3;
#X connect 10 0 15 0;
#X connect 12 0 14 0;
#X connect 13 0 12 0;
#X connect 14 0 54 0;
#X connect 15 0 13 0;
#X connect 15 1 14 3;
#X connect 16 0 20 0;
#X connect 18 0 47 0;
#X connect 19 0 18 0;
#X connect 20 0 19 0;
#X connect 20 1 47 3;
#X connect 21 0 25 0;
#X connect 23 0 48 0;
#X connect 24 0 23 0;
#X connect 25 0 24 0;
#X connect 25 1 48 3;
#X connect 26 0 30 0;
#X connect 28 0 49 0;
#X connect 29 0 28 0;
#X connect 30 0 29 0;
#X connect 30 1 49 3;
#X connect 31 0 35 0;
#X connect 33 0 50 0;
#X connect 34 0 33 0;
#X connect 35 0 34 0;
#X connect 35 1 50 3;
#X connect 36 0 40 0;
#X connect 38 0 51 0;
#X connect 39 0 38 0;
#X connect 40 0 39 0;
#X connect 40 1 51 3;
#X connect 41 0 45 0;
#X connect 43 0 52 0;
#X connect 44 0 43 0;
#X connect 45 0 44 0;
#X connect 45 1 52 3;
#X connect 46 0 53 0;
#X connect 47 0 55 0;
#X connect 48 0 56 0;
#X connect 49 0 60 0;
#X connect 50 0 59 0;
#X connect 51 0 58 0;
#X connect 52 0 57 0;
#X connect 53 0 6 0;
#X connect 54 0 11 0;
#X connect 55 0 17 0;
#X connect 56 0 22 0;
#X connect 57 0 42 0;
#X connect 58 0 37 0;
#X connect 59 0 32 0;
#X connect 60 0 27 0;
#X connect 61 0 65 0;
#X connect 63 0 85 0;
#X connect 64 0 63 0;
#X connect 65 0 64 0;
#X connect 65 1 85 3;
#X connect 66 0 70 0;
#X connect 68 0 86 0;
#X connect 69 0 68 0;
#X connect 70 0 69 0;
#X connect 70 1 86 3;
#X connect 71 0 67 0;
#X connect 72 0 62 0;
#X connect 73 0 77 0;
#X connect 75 0 87 0;
#X connect 76 0 75 0;
#X connect 77 0 76 0;
#X connect 77 1 87 3;
#X connect 78 0 82 0;
#X connect 80 0 88 0;
#X connect 81 0 80 0;
#X connect 82 0 81 0;
#X connect 82 1 88 3;
#X connect 83 0 79 0;
#X connect 84 0 74 0;
#X connect 85 0 72 0;
#X connect 86 0 71 0;
#X connect 87 0 84 0;
#X connect 88 0 83 0;
#X restore 227 543 pd hurgytronOSC;
#X obj 22 0 hurgy_bidirection 0;
#X obj 229 1 hurgy_bidirection 1;
#X obj 432 2 hurgy_bidirection 2;
#X obj 635 1 hurgy_bidirection 3;
#X obj 22 212 hurgy_bidirection 4;
#X obj 224 216 hurgy_bidirection 5;
#X obj 431 215 hurgy_bidirection 6;
#X obj 642 219 hurgy_bidirection 7;
#X obj 163 -136 lfo_v;
#X obj 849 560 clock;
#X obj 368 -135 lfo_v;
#X obj 564 -148 lfo_v;
#X obj 774 -139 lfo_v;
#X obj 161 77 lfo_v;
#X obj 379 77 lfo_v;
#X obj 575 64 lfo_v;
#X obj 785 73 lfo_v;
#X obj 522 185 ctlin 5;
#X obj 716 188 ctlin 84;
#X obj 905 65 bendin;
#X floatatom 905 88 5 0 0 0 - - -;
#X obj 905 110 / 16383;
#X obj 905 133 * 127;
#X floatatom 906 162 5 0 0 0 - - -;
#N canvas 0 341 1366 709 osc_interface 0;
#X obj 442 105 cnv 15 100 60 empty empty empty 20 12 0 10 -262144 -1
0;
#X obj 17 18 inlet connect;
#X msg 473 311 connect;
#X msg 473 353 \$1 \$2 \$3;
#X obj 473 332 pack s s f;
#X symbolatom 104 125 16 0 0 0 - - -;
#X obj 104 51 loadbang;
#X obj 473 261 t b b s b;
#X obj 17 44 symbol;
#X obj 17 69 t b s;
#X text 430 128 ce petit rectangle gère la connexion réseau avec
le module OSC, f 18;
#X text 75 485 DESCRIPTION :;
#X text 74 511 - ce canvas concentre les commandes qui gèrent la communication
avec les cartes. Il est nécessaire de lui donner l'adresse IP que
la carte lui communique au démarrage pour un fonctionnement assuré
de part et d'autre. À gauche du canvas \, les bidouilles permettent
d'organiser l'ordre des commandes envoyées pour ouvrir et fermer les
connections.;
#X obj 225 17 inlet in_onepacket;
#X obj 762 14 inlet in_bundle;
#X text 324 104 oneshot;
#X text 495 103 bundles;
#X obj 473 479 udpsend;
#X msg 473 456 disconnect;
#X obj 207 126 tgl 15 0 empty empty 1=connected 20 8 0 8 -4034 -257985
-1 1 1;
#X obj 1099 144 + 1;
#X obj 831 144 + 1;
#X msg 784 220 0;
#X obj 784 169 sel 0;
#X obj 1130 144 sel 0;
#X obj 1099 195 mod 32;
#X obj 1069 144 f;
#X obj 784 144 f;
#X obj 784 119 bang;
#X obj 1069 118 bang;
#X text 816 117 Envoie un paquet (bundle) chaque N msec;
#X text 982 73 FABRIQUE DE BUNDLES;
#X msg 879 193 delay \$1 msec;
#X obj 879 216 print;
#X obj 1144 218 print;
#X msg 1144 195 \$1 messages max per packet;
#X text 1105 117 N messages maximum par paquet (bundle);
#X text 435 431 GESTION RESEAU SORTANT;
#X floatatom 241 160 3 0 0 0 - - -;
#X floatatom 272 160 3 0 0 0 - - -;
#X floatatom 303 160 3 0 0 0 - - -;
#X floatatom 334 160 3 0 0 0 - - -;
#X floatatom 241 369 10 0 0 1 millisecond_delay - -;
#X obj 35 323 pipelist;
#X obj 241 253 unpack 0 0 0 0 0;
#X floatatom 366 160 8 0 0 0 - - -;
#X obj 167 230 route received from;
#X floatatom 167 159 5 0 0 0 - - -;
#X text 105 318 If the OSC packet has a timetag \, [pipelist] will
delay it until the time occurs;
#X text 121 281 [unpackOSC] parses lists of floats (only integers on
[0..255]) as OSC packets.;
#X obj 35 357 routeOSC /ack /debug /main;
#X obj 35 380 print ack;
#X obj 86 403 print debug;
#X obj 137 427 print debug;
#X obj 188 451 print;
#X text 103 160 RECEIVED;
#X text 200 153 bytes;
#X text 206 167 from;
#X text 20 192 GESTION RESEAU ENTRANT;
#X obj 104 74 symbol 255.255.255.255;
#X msg 530 311 9000;
#X obj 35 212 udpreceive 9000;
#X obj 1159 417 bng 15 250 50 0 empty empty empty 17 7 0 10 -262144
-1 -1;
#X floatatom 1241 417 4 0 0 0 - - -;
#X floatatom 1296 534 5 0 0 0 - - -;
#X obj 1131 530 bng 15 250 50 0 empty empty empty 17 7 0 10 -262144
-1 -1;
#X obj 1159 616 print;
#X obj 1159 528 symbol;
#X msg 1159 503 /tools/count1;
#X msg 1159 583 \$1 \$2;
#X obj 1159 558 pack s f;
#X obj 1159 446 metro 100;
#X obj 758 484 cnv 15 100 40 empty empty empty 20 12 0 14 -4034 -66577
0;
#X obj 787 497 packOSC;
#X msg 922 280 [;
#X msg 874 280 ];
#X text 788 282 close bundle;
#X floatatom 826 526 5 0 0 0 - - -;
#X text 861 526 bundle depth;
#X msg 869 431 typetags \$1;
#X obj 869 413 tgl 15 0 empty empty empty 17 7 0 10 -257985 -258113
-1 0 1;
#X text 941 431 typetags are on by default;
#X text 947 386 set buffer size (default is 64000 bytes);
#X text 953 279 open bundle;
#X obj 922 256 loadbang;
#X msg 588 278 /tools/connect;
#X obj 787 585 print >>;
#X obj 787 563 spigot;
#X obj 831 563 tgl 15 0 empty empty raw 17 7 0 10 -257985 -258113 -1
0 1;
#X text 655 429 CREATION DU PAQUET OSC;
#X obj 16 252 cnv 15 100 60 empty empty empty 20 12 0 14 -4034 -66577
0;
#X obj 35 266 unpackOSC;
#X text 587 258 envoie à la carte notre ip;
#X text 102 104 CONNECT TO:;
#X obj 784 194 delay 1 2 msec;
#X floatatom 865 173 5 0 0 0 - - -;
#X msg 869 388 bufsize 4096;
#X msg 1144 170 24;
#X connect 1 0 8 0;
#X connect 2 0 4 0;
#X connect 3 0 17 0;
#X connect 4 0 3 0;
#X connect 5 0 7 0;
#X connect 6 0 59 0;
#X connect 7 1 2 0;
#X connect 7 2 4 1;
#X connect 7 3 18 0;
#X connect 7 3 60 0;
#X connect 8 0 9 0;
#X connect 9 0 85 0;
#X connect 9 0 59 0;
#X connect 9 1 59 1;
#X connect 13 0 73 0;
#X connect 13 0 75 0;
#X connect 14 0 29 0;
#X connect 14 0 28 0;
#X connect 14 0 73 0;
#X connect 17 0 19 0;
#X connect 18 0 17 0;
#X connect 20 0 25 0;
#X connect 21 0 27 1;
#X connect 22 0 26 1;
#X connect 22 0 27 1;
#X connect 22 0 75 0;
#X connect 23 0 94 0;
#X connect 24 0 75 0;
#X connect 25 0 24 0;
#X connect 25 0 26 1;
#X connect 26 0 20 0;
#X connect 27 0 21 0;
#X connect 27 0 23 0;
#X connect 28 0 27 0;
#X connect 29 0 26 0;
#X connect 32 0 33 0;
#X connect 35 0 34 0;
#X connect 43 0 50 0;
#X connect 44 0 38 0;
#X connect 44 1 39 0;
#X connect 44 2 40 0;
#X connect 44 3 41 0;
#X connect 44 4 45 0;
#X connect 46 0 47 0;
#X connect 46 1 44 0;
#X connect 50 0 51 0;
#X connect 50 1 52 0;
#X connect 50 2 53 0;
#X connect 50 3 54 0;
#X connect 59 0 5 0;
#X connect 60 0 4 2;
#X connect 61 0 91 0;
#X connect 61 1 46 0;
#X connect 62 0 71 0;
#X connect 63 0 71 1;
#X connect 64 0 70 1;
#X connect 65 0 70 0;
#X connect 67 0 70 0;
#X connect 68 0 67 0;
#X connect 69 0 66 0;
#X connect 70 0 69 0;
#X connect 71 0 68 0;
#X connect 73 0 17 0;
#X connect 73 0 87 0;
#X connect 73 1 77 0;
#X connect 74 0 73 0;
#X connect 75 0 73 0;
#X connect 75 0 74 0;
#X connect 79 0 73 0;
#X connect 80 0 79 0;
#X connect 84 0 74 0;
#X connect 84 0 96 0;
#X connect 85 0 73 0;
#X connect 85 0 75 0;
#X connect 87 0 86 0;
#X connect 88 0 87 1;
#X connect 91 0 43 0;
#X connect 91 1 43 1;
#X connect 91 1 42 0;
#X connect 94 0 22 0;
#X connect 95 0 94 1;
#X connect 95 0 32 0;
#X connect 96 0 73 0;
#X connect 97 0 25 1;
#X connect 97 0 35 0;
#X coords 0 -1 1 1 445 86 2 100 100;
#X restore 451 458 pd osc_interface;
#N canvas 0 96 683 672 tools_commands 0;
#X obj 324 101 cnv 15 100 60 empty empty TOOLS_commands 20 12 0 12
-262144 -1 0;
#X obj 106 107 bng 15 250 50 0 empty empty -FORCEOFF_ALL 17 7 0 10
-262144 -1 -1;
#X obj 221 137 bng 30 250 50 0 empty empty -HARDRESET 32 7 0 10 -258113
-262144 -1;
#X obj 106 135 bng 15 250 50 0 empty empty -SOFTRESET 17 7 0 10 -262144
-1 -1;
#X obj 526 462 outlet;
#X obj 231 107 tgl 15 0 empty empty -DEBUG 17 7 0 10 -4160 -262144
-1 0 1;
#X floatatom 221 107 1 0 0 0 - - -;
#X obj 91 259 s tools_outlet;
#X obj 526 438 r tools_outlet;
#X obj 251 259 s tools_outlet;
#X obj 392 259 s tools_outlet;
#X obj 535 265 s tools_outlet;
#X obj 536 53 s pdreset;
#X obj 231 35 r pdreset;
#X floatatom 231 58 5 0 0 0 - - -;
#X text 342 122 commandes système \, pour communiquer avec la carte.
, f 18;
#X text 46 308 DESCRIPTION :;
#X text 46 344 - FORCEOFF_ALL permet de remettre à zéro l'état des
SORTIES *et* des signaux PWM de la carte.;
#X text 46 413 - SOFTRESET permet de réinitialiser l'ensemble des
commandes de la carte (intermédiaire).;
#X text 46 449 - HARDRESET permet de rebooter la carte.;
#X text 46 379 - DEBUG active un mode bavard : on peut visualiser tout
ce que reçoit et envoie la carte., f 61;
#X obj 536 75 s pdforceoff;
#X msg 251 235 /tools/softreset;
#X msg 91 235 /tools/forceoff_all;
#X msg 392 235 /tools/hardreset;
#X msg 535 171 /tools/debug;
#X obj 535 218 pack s f;
#X msg 535 241 \$1 \$2;
#X obj 535 194 symbol;
#X connect 1 0 23 0;
#X connect 1 0 21 0;
#X connect 2 0 24 0;
#X connect 2 0 12 0;
#X connect 3 0 22 0;
#X connect 3 0 12 0;
#X connect 5 0 6 0;
#X connect 5 0 26 1;
#X connect 5 0 25 0;
#X connect 8 0 4 0;
#X connect 13 0 14 0;
#X connect 14 0 5 0;
#X connect 22 0 9 0;
#X connect 23 0 7 0;
#X connect 24 0 10 0;
#X connect 25 0 28 0;
#X connect 26 0 27 0;
#X connect 27 0 11 0;
#X connect 28 0 26 0;
#X coords 0 -1 1 1 360 86 2 100 100;
#X restore 899 434 pd tools_commands;
#X obj 452 422 bng 30 250 50 0 empty empty empty 32 7 0 10 -4034 -262144
-1;
#X text 485 417 Connecter à l'IP du module :;
#X obj 795 434 r oscinput_bdles;
#X obj 652 434 r oscinput_onepacket;
#X obj 899 525 s oscinput_onepacket;
#X obj 949 -79 bng 15 250 50 0 empty empty empty 17 7 0 10 -262144
-1 -1;
#X obj 227 581 s oscinput_bdles;
#X msg 488 434 172.24.1.143;
#X msg 880 303 sendtyped /suraig/regtable ffffffffffffffffffffffffffffffffffffffffffffffff
1 0 1 0 1 0 0.3 0.4 0.5 0.6 0.7 0.8 0.9 1 0.9 0.8 0.7 0.6 0.5 0.4 0.3
0.2 0.1 0 0 0 0 0 0 0 0 0 0 0 0 0 0 0 0 0 0 0 0 0 0 0 0 0;
#X msg 880 241 sendtyped /suraig/regtable ffffffffffffffffffffffffffffffffffffffffffffffff
0 1 0 1 0 0.3 0.4 0.5 0.6 0.7 0.8 0.9 1 0.9 0.8 0.7 0.6 0.5 0.4 0.3
0.2 0.1 0 0 0 0 0 0 0 0 0 0 0 0 0 0 0 0 0 0 0 0 0 0 0 0 0 0;
#X obj 101 -22 ctlin 20;
#X obj 305 -26 ctlin 21;
#X obj 497 -31 ctlin 22;
#X obj 693 -35 ctlin 23;
#X obj 100 176 ctlin 24;
#X obj 310 175 ctlin 25;
#X connect 2 0 0 0;
#X connect 2 0 3 0;
#X connect 2 1 1 0;
#X connect 2 1 3 1;
#X connect 3 0 4 0;
#X connect 4 0 37 0;
#X connect 5 0 4 0;
#X connect 6 0 4 0;
#X connect 7 0 4 0;
#X connect 8 0 4 0;
#X connect 9 0 4 0;
#X connect 10 0 4 0;
#X connect 11 0 4 0;
#X connect 12 0 4 0;
#X connect 13 0 5 1;
#X connect 15 0 6 1;
#X connect 16 0 7 1;
#X connect 17 0 8 1;
#X connect 18 0 9 1;
#X connect 19 0 10 1;
#X connect 20 0 11 1;
#X connect 21 0 12 1;
#X connect 22 0 11 1;
#X connect 23 0 12 1;
#X connect 24 0 25 0;
#X connect 25 0 26 0;
#X connect 26 0 27 0;
#X connect 27 0 28 0;
#X connect 28 0 5 1;
#X connect 28 0 6 1;
#X connect 28 0 7 1;
#X connect 28 0 8 1;
#X connect 28 0 12 1;
#X connect 28 0 11 1;
#X connect 28 0 10 1;
#X connect 28 0 9 1;
#X connect 30 0 35 0;
#X connect 31 0 38 0;
#X connect 33 0 29 2;
#X connect 34 0 29 1;
#X connect 36 0 17 0;
#X connect 36 0 5 0;
#X connect 36 0 16 0;
#X connect 36 0 15 0;
#X connect 36 0 21 0;
#X connect 36 0 20 0;
#X connect 36 0 19 0;
#X connect 36 0 18 0;
#X connect 36 0 13 0;
#X connect 36 0 8 0;
#X connect 36 0 7 0;
#X connect 36 0 6 0;
#X connect 36 0 12 0;
#X connect 36 0 11 0;
#X connect 36 0 10 0;
#X connect 36 0 9 0;
#X connect 38 0 29 0;
#X connect 39 0 37 0;
#X connect 40 0 37 0;
#X connect 41 0 5 1;
#X connect 42 0 6 1;
#X connect 43 0 7 1;
#X connect 44 0 8 1;
#X connect 45 0 9 1;
#X connect 46 0 10 1;
