#N canvas 840 69 840 981 10;
#X obj 360 286 list prepend send;
#X obj 360 308 list trim;
#X obj 360 337 netsend -u -b;
#X msg 481 267 disconnect;
#X obj 21 17 notein;
#X floatatom 21 39 5 0 0 0 - - -;
#X floatatom 67 38 5 0 0 0 - - -;
#X floatatom 67 17 5 0 0 0 - - -;
#X obj 337 80 oscparse;
#X obj 337 102 list trim;
#X obj 376 168 print debug;
#X msg 21 104 set /main/coil;
#X obj 20 259 t a a a;
#X msg 20 281 set /main/oe;
#X obj 23 197 hsl 128 15 0 1 0 0 empty empty empty -2 -8 0 10 -262144
-1 -1 0 1;
#X obj 163 197 hsl 128 15 0.001 10 1 0 empty empty empty -2 -8 0 10
-262144 -1 -1 0 0;
#X obj 579 405 t a a a;
#X msg 579 383 1;
#X msg 579 427 format i;
#X obj 360 242 receive oscinput;
#X obj 21 148 send oscinput;
#X obj 20 325 send oscinput;
#X obj 233 287 list prepend send;
#X obj 233 309 list trim;
#X obj 233 338 netsend -u -b;
#X msg 483 355 disconnect;
#X msg 483 333 connect 255.255.255.255 12345;
#X obj 360 264 oscformat -s /main;
#X obj 579 471 send oscdebug;
#X obj 233 243 receive oscdebug;
#X obj 561 187 bng 15 250 50 0 empty empty empty 17 7 0 10 -262144
-1 -1;
#X obj 337 146 print main;
#X msg 160 216 bang;
#X floatatom 198 216 5 0 0 0 - - -;
#X floatatom 20 216 5 0 0 0 - - -;
#X obj 221 720 t a a a;
#X obj 224 658 hsl 128 15 0 1 0 0 empty empty empty -2 -8 0 10 -262144
-1 -1 0 1;
#X obj 221 786 send oscinput;
#X floatatom 221 677 5 0 0 0 - - -;
#X msg 20 303 format ff;
#X msg 221 764 format f;
#X obj 221 698 pack 0;
#X obj 530 553 send oscinput;
#X obj 530 512 bng 15 250 50 0 empty empty empty 17 7 0 10 -262144
-1 -1;
#X obj 532 653 bng 15 250 50 0 empty empty empty 17 7 0 10 -262144
-1 -1;
#X obj 531 582 bng 15 250 50 0 empty empty empty 17 7 0 10 -262144
-1 -1;
#X obj 449 394 bng 15 250 50 0 empty empty empty 17 7 0 10 -262144
-1 -1;
#X msg 532 672 set /tools/hardreset;
#X msg 531 601 set /tools/softreset;
#X msg 449 413 set /tools/connect;
#X msg 579 449 set /tools/debug;
#X obj 233 265 oscformat -s /tools;
#X obj 532 694 send oscdebug;
#X obj 531 623 send oscdebug;
#X obj 449 435 send oscdebug;
#X obj 20 418 t a a a;
#X obj 23 356 hsl 128 15 0.1 2000 1 0 empty empty empty -2 -8 0 10
-262144 -1 -1 0 1;
#X obj 20 484 send oscinput;
#X floatatom 20 375 5 0 0 0 - - -;
#X msg 20 462 format f;
#X obj 20 396 pack 0;
#X msg 20 440 set /main/tone;
#X obj 21 60 pack 0 0;
#X msg 21 126 format ii;
#X obj 21 82 t a a a;
#X obj 20 237 pack 0 0;
#X floatatom 119 36 5 0 0 0 - - -;
#X floatatom 164 36 5 0 0 0 - - -;
#X msg 119 103 set /main/coil;
#X obj 119 147 send oscinput;
#X obj 119 59 pack 0 0;
#X msg 119 125 format ii;
#X obj 119 81 t a a a;
#X obj 119 17 bng 15 250 50 0 empty empty empty 17 7 0 10 -262144 -1
-1;
#X floatatom 218 39 5 0 0 0 - - -;
#X floatatom 264 38 5 0 0 0 - - -;
#X floatatom 264 17 5 0 0 0 - - -;
#X obj 218 17 ctlin;
#X floatatom 218 82 0 0 0 0 - - -;
#X obj 218 60 pow -1;
#X obj 250 120 midiin;
#X floatatom 250 142 0 0 0 0 - - -;
#X floatatom 283 167 0 0 0 0 - - -;
#X obj 337 124 route main debug ack;
#X obj 415 146 print ack;
#X obj 579 362 bng 15 250 50 0 empty empty empty 17 7 0 10 -262144
-1 -1;
#X msg 481 245 connect 172.24.1.143 12345;
#X obj 337 58 netreceive -u -b 12345;
#X msg 546 45 listen 12345;
#X msg 546 67 listen 0;
#X floatatom 233 363 5 0 0 0 - - -;
#X floatatom 360 363 5 0 0 0 - - -;
#X obj 583 186 loadbang;
#X floatatom 27 515 5 0 48 0 - - -;
#X floatatom 72 515 1 0 1 0 - - -;
#X obj 27 624 send oscinput;
#X obj 27 536 pack 0 0;
#X msg 27 602 format ii;
#X obj 27 558 t a a a;
#X msg 27 580 set /lowlevel/output;
#X floatatom 165 533 1 0 1 0 - - -;
#X obj 165 620 send oscinput;
#X msg 165 576 set /lowlevel/output_all;
#X obj 165 554 t a a a;
#X msg 165 598 format i;
#X floatatom 329 534 5 0 48 0 - - -;
#X obj 329 621 send oscinput;
#X obj 329 555 t a a a;
#X msg 329 599 format i;
#X msg 329 577 set /lowlevel/output_state;
#X msg 221 742 set /lowlevel/pwm_all;
#X obj 30 720 t a a a;
#X obj 72 658 hsl 128 15 0 1 0 0 empty empty empty -2 -8 0 10 -262144
-1 -1 0 1;
#X obj 30 786 send oscinput;
#X floatatom 69 677 5 0 0 0 - - -;
#X msg 30 742 set /lowlevel/pwm;
#X msg 30 764 format if;
#X obj 30 698 pack 0 0;
#X floatatom 30 677 5 0 48 0 - - -;
#X msg 110 677 bang;
#X msg 530 531 set /tools/forceoff_all;
#X obj 386 816 t a a a;
#X obj 476 752 hsl 128 15 1 3 0 0 empty empty empty -2 -8 0 10 -262144
-1 -1 12700 0;
#X obj 386 882 send oscinput;
#X msg 462 793 bang;
#X floatatom 500 793 5 0 0 0 - - -;
#X floatatom 386 773 5 0 47 0 - - -;
#X obj 386 794 pack 0 0 0;
#X msg 386 860 format iif;
#X msg 386 838 set /main/motor;
#X floatatom 422 773 5 0 47 0 - - -;
#X obj 500 772 - 2;
#X obj 31 877 t a a a;
#X obj 31 943 send oscinput;
#X msg 103 835 bang;
#X floatatom 31 834 5 0 47 0 - - -;
#X floatatom 67 834 5 0 47 0 - - -;
#X obj 31 855 pack 0 0;
#X msg 31 900 set /main/motor_brake;
#X msg 31 921 format ii;
#X obj 179 878 t a a a;
#X obj 179 944 send oscinput;
#X msg 251 836 bang;
#X floatatom 179 835 5 0 47 0 - - -;
#X floatatom 215 835 5 0 47 0 - - -;
#X obj 179 856 pack 0 0;
#X msg 179 922 format ii;
#X msg 179 900 set /main/motor_coast;
#X connect 0 0 1 0;
#X connect 1 0 2 0;
#X connect 2 0 91 0;
#X connect 3 0 2 0;
#X connect 3 0 86 0;
#X connect 4 0 5 0;
#X connect 4 1 6 0;
#X connect 4 2 7 0;
#X connect 5 0 62 0;
#X connect 6 0 62 1;
#X connect 8 0 9 0;
#X connect 9 0 83 0;
#X connect 11 0 20 0;
#X connect 12 0 21 0;
#X connect 12 1 13 0;
#X connect 12 2 39 0;
#X connect 13 0 21 0;
#X connect 14 0 34 0;
#X connect 14 0 65 0;
#X connect 15 0 32 0;
#X connect 15 0 33 0;
#X connect 15 0 65 1;
#X connect 16 1 50 0;
#X connect 16 2 18 0;
#X connect 17 0 16 0;
#X connect 17 0 28 0;
#X connect 18 0 28 0;
#X connect 19 0 27 0;
#X connect 22 0 23 0;
#X connect 23 0 24 0;
#X connect 24 0 90 0;
#X connect 25 0 24 0;
#X connect 26 0 24 0;
#X connect 26 0 2 0;
#X connect 27 0 0 0;
#X connect 29 0 51 0;
#X connect 30 0 88 0;
#X connect 30 0 3 0;
#X connect 32 0 65 0;
#X connect 35 0 37 0;
#X connect 35 1 110 0;
#X connect 35 2 40 0;
#X connect 36 0 38 0;
#X connect 36 0 41 0;
#X connect 39 0 21 0;
#X connect 40 0 37 0;
#X connect 41 0 35 0;
#X connect 43 0 120 0;
#X connect 43 0 42 0;
#X connect 44 0 47 0;
#X connect 44 0 52 0;
#X connect 45 0 48 0;
#X connect 45 0 53 0;
#X connect 46 0 49 0;
#X connect 46 0 54 0;
#X connect 46 0 30 0;
#X connect 47 0 52 0;
#X connect 48 0 53 0;
#X connect 49 0 54 0;
#X connect 50 0 28 0;
#X connect 51 0 22 0;
#X connect 55 0 57 0;
#X connect 55 1 61 0;
#X connect 55 2 59 0;
#X connect 56 0 58 0;
#X connect 56 0 60 0;
#X connect 59 0 57 0;
#X connect 60 0 55 0;
#X connect 61 0 57 0;
#X connect 62 0 64 0;
#X connect 63 0 20 0;
#X connect 64 0 20 0;
#X connect 64 1 11 0;
#X connect 64 2 63 0;
#X connect 65 0 12 0;
#X connect 66 0 70 0;
#X connect 67 0 70 1;
#X connect 68 0 69 0;
#X connect 70 0 72 0;
#X connect 71 0 69 0;
#X connect 72 0 69 0;
#X connect 72 1 68 0;
#X connect 72 2 71 0;
#X connect 73 0 66 0;
#X connect 74 0 79 0;
#X connect 77 0 74 0;
#X connect 77 1 75 0;
#X connect 77 2 76 0;
#X connect 78 0 15 0;
#X connect 79 0 78 0;
#X connect 80 0 81 0;
#X connect 80 1 82 0;
#X connect 83 0 31 0;
#X connect 83 1 10 0;
#X connect 83 2 84 0;
#X connect 85 0 17 0;
#X connect 86 0 2 0;
#X connect 87 0 8 0;
#X connect 88 0 87 0;
#X connect 89 0 87 0;
#X connect 92 0 26 0;
#X connect 92 0 88 0;
#X connect 93 0 96 0;
#X connect 94 0 96 1;
#X connect 96 0 98 0;
#X connect 97 0 95 0;
#X connect 98 0 95 0;
#X connect 98 1 99 0;
#X connect 98 2 97 0;
#X connect 99 0 95 0;
#X connect 100 0 103 0;
#X connect 102 0 101 0;
#X connect 103 0 101 0;
#X connect 103 1 102 0;
#X connect 103 2 104 0;
#X connect 104 0 101 0;
#X connect 105 0 107 0;
#X connect 107 0 106 0;
#X connect 107 1 109 0;
#X connect 107 2 108 0;
#X connect 108 0 106 0;
#X connect 109 0 106 0;
#X connect 110 0 37 0;
#X connect 111 0 113 0;
#X connect 111 1 115 0;
#X connect 111 2 116 0;
#X connect 112 0 114 0;
#X connect 112 0 117 1;
#X connect 112 0 119 0;
#X connect 115 0 113 0;
#X connect 116 0 113 0;
#X connect 117 0 111 0;
#X connect 118 0 117 0;
#X connect 119 0 117 0;
#X connect 120 0 42 0;
#X connect 121 0 123 0;
#X connect 121 1 129 0;
#X connect 121 2 128 0;
#X connect 122 0 124 0;
#X connect 122 0 131 0;
#X connect 124 0 127 0;
#X connect 126 0 127 0;
#X connect 127 0 121 0;
#X connect 128 0 123 0;
#X connect 129 0 123 0;
#X connect 130 0 127 1;
#X connect 130 0 124 0;
#X connect 131 0 125 0;
#X connect 131 0 127 2;
#X connect 132 0 133 0;
#X connect 132 1 138 0;
#X connect 132 2 139 0;
#X connect 134 0 137 0;
#X connect 135 0 137 0;
#X connect 136 0 134 0;
#X connect 136 0 137 1;
#X connect 137 0 132 0;
#X connect 138 0 133 0;
#X connect 139 0 133 0;
#X connect 140 0 141 0;
#X connect 140 1 147 0;
#X connect 140 2 146 0;
#X connect 142 0 145 0;
#X connect 143 0 145 0;
#X connect 144 0 142 0;
#X connect 144 0 145 1;
#X connect 145 0 140 0;
#X connect 146 0 141 0;
#X connect 147 0 141 0;
