#N canvas 480 96 886 672 10;
#N canvas 125 282 1024 486 osc_interface 0;
#X obj 442 105 cnv 15 100 60 empty empty empty 20 12 0 10 -262144 -1
0;
#X obj 17 18 inlet connect;
#X msg 473 311 connect;
#X msg 473 353 \$1 \$2 \$3;
#X obj 473 332 pack s s f;
#X symbolatom 104 125 16 0 0 0 - - -;
#X obj 104 51 loadbang;
#X obj 473 261 t b b s b;
#X obj 17 44 symbol;
#X obj 17 69 t b s;
#X text 430 128 ce petit rectangle gère la connexion réseau avec
le module OSC, f 18;
#X text 75 485 DESCRIPTION :;
#X text 74 511 - ce canvas concentre les commandes qui gèrent la communication
avec les cartes. Il est nécessaire de lui donner l'adresse IP que
la carte lui communique au démarrage pour un fonctionnement assuré
de part et d'autre. À gauche du canvas \, les bidouilles permettent
d'organiser l'ordre des commandes envoyées pour ouvrir et fermer les
connections.;
#X obj 225 17 inlet in_onepacket;
#X obj 762 14 inlet in_bundle;
#X text 324 104 oneshot;
#X text 495 103 bundles;
#X obj 473 479 udpsend;
#X msg 473 456 disconnect;
#X obj 207 126 tgl 15 0 empty empty 1=connected 20 8 0 8 -4034 -257985
-1 1 1;
#X obj 1099 144 + 1;
#X obj 831 144 + 1;
#X msg 784 220 0;
#X obj 784 169 sel 0;
#X obj 1130 144 sel 0;
#X obj 1099 195 mod 32;
#X msg 1144 171 32;
#X obj 1069 144 f;
#X obj 784 144 f;
#X obj 784 119 bang;
#X obj 1069 118 bang;
#X obj 784 194 delay 5 1 msec;
#X text 816 117 Envoie un paquet (bundle) chaque N msec;
#X text 982 73 FABRIQUE DE BUNDLES;
#X msg 879 193 delay \$1 msec;
#X obj 879 216 print;
#X obj 1144 218 print;
#X msg 1144 195 \$1 messages max per packet;
#X text 1105 117 N messages maximum par paquet (bundle);
#X text 435 431 GESTION RESEAU SORTANT;
#X floatatom 241 160 3 0 0 0 - - -;
#X floatatom 272 160 3 0 0 0 - - -;
#X floatatom 303 160 3 0 0 0 - - -;
#X floatatom 334 160 3 0 0 0 - - -;
#X floatatom 241 369 10 0 0 1 millisecond_delay - -;
#X obj 35 323 pipelist;
#X obj 241 253 unpack 0 0 0 0 0;
#X floatatom 366 160 8 0 0 0 - - -;
#X obj 167 230 route received from;
#X floatatom 167 159 5 0 0 0 - - -;
#X text 105 318 If the OSC packet has a timetag \, [pipelist] will
delay it until the time occurs;
#X text 121 281 [unpackOSC] parses lists of floats (only integers on
[0..255]) as OSC packets.;
#X obj 35 357 routeOSC /ack /debug /main;
#X obj 35 380 print ack;
#X obj 86 403 print debug;
#X obj 137 427 print debug;
#X obj 188 451 print;
#X text 103 160 RECEIVED;
#X text 200 153 bytes;
#X text 206 167 from;
#X text 20 192 GESTION RESEAU ENTRANT;
#X msg 530 311 9000;
#X obj 35 212 udpreceive 9000;
#X obj 1159 417 bng 15 250 50 0 empty empty empty 17 7 0 10 -262144
-1 -1;
#X floatatom 1241 417 4 0 0 0 - - -;
#X floatatom 1296 534 5 0 0 0 - - -;
#X obj 1131 530 bng 15 250 50 0 empty empty empty 17 7 0 10 -262144
-1 -1;
#X obj 1159 616 print;
#X obj 1159 528 symbol;
#X msg 1159 503 /tools/count1;
#X msg 1159 583 \$1 \$2;
#X obj 1159 558 pack s f;
#X obj 1159 446 metro 100;
#X obj 760 486 cnv 15 100 40 empty empty empty 20 12 0 14 -4034 -66577
0;
#X obj 787 497 packOSC;
#X msg 898 303 [;
#X msg 850 303 ];
#X text 764 305 close bundle;
#X floatatom 826 526 5 0 0 0 - - -;
#X text 861 526 bundle depth;
#X msg 869 431 typetags \$1;
#X obj 869 413 tgl 15 0 empty empty empty 17 7 0 10 -257985 -258113
-1 0 1;
#X text 941 431 typetags are on by default;
#X text 947 386 set buffer size (default is 64000 bytes);
#X text 929 302 open bundle;
#X obj 607 38 loadbang;
#X msg 573 211 /tools/connect;
#X obj 787 585 print >>;
#X obj 787 563 spigot;
#X obj 831 563 tgl 15 0 empty empty raw 17 7 0 10 -257985 -258113 -1
0 1;
#X text 655 429 CREATION DU PAQUET OSC;
#X obj 16 252 cnv 15 100 60 empty empty empty 20 12 0 14 -4034 -66577
0;
#X obj 35 266 unpackOSC;
#X text 572 191 envoie à la carte notre ip;
#X text 102 104 CONNECT TO:;
#X msg 869 388 bufsize 4096;
#X obj 850 266 t b b;
#X obj 607 61 t b b b;
#X obj 573 234 t b b a;
#X obj 225 41 t b b a;
#X msg 879 170 3;
#X obj 104 74 symbol 172.24.1.255;
#X connect 1 0 8 0;
#X connect 2 0 4 0;
#X connect 3 0 17 0;
#X connect 4 0 3 0;
#X connect 5 0 7 0;
#X connect 6 0 101 0;
#X connect 7 1 2 0;
#X connect 7 2 4 1;
#X connect 7 3 61 0;
#X connect 7 3 18 0;
#X connect 8 0 9 0;
#X connect 9 0 86 0;
#X connect 9 0 101 0;
#X connect 9 1 101 1;
#X connect 13 0 99 0;
#X connect 14 0 30 0;
#X connect 14 0 29 0;
#X connect 14 0 74 0;
#X connect 17 0 19 0;
#X connect 18 0 17 0;
#X connect 20 0 25 0;
#X connect 21 0 28 1;
#X connect 22 0 27 1;
#X connect 22 0 28 1;
#X connect 22 0 96 0;
#X connect 23 0 31 0;
#X connect 24 0 96 0;
#X connect 25 0 24 0;
#X connect 25 0 27 1;
#X connect 26 0 25 1;
#X connect 26 0 37 0;
#X connect 27 0 20 0;
#X connect 28 0 21 0;
#X connect 28 0 23 0;
#X connect 29 0 28 0;
#X connect 30 0 27 0;
#X connect 31 0 22 0;
#X connect 34 0 35 0;
#X connect 37 0 36 0;
#X connect 45 0 52 0;
#X connect 46 0 40 0;
#X connect 46 1 41 0;
#X connect 46 2 42 0;
#X connect 46 3 43 0;
#X connect 46 4 47 0;
#X connect 48 0 49 0;
#X connect 48 1 46 0;
#X connect 52 0 53 0;
#X connect 52 1 54 0;
#X connect 52 2 55 0;
#X connect 52 3 56 0;
#X connect 61 0 4 2;
#X connect 62 0 92 0;
#X connect 62 1 48 0;
#X connect 63 0 72 0;
#X connect 64 0 72 1;
#X connect 65 0 71 1;
#X connect 66 0 71 0;
#X connect 68 0 71 0;
#X connect 69 0 68 0;
#X connect 70 0 67 0;
#X connect 71 0 70 0;
#X connect 72 0 69 0;
#X connect 74 0 17 0;
#X connect 74 0 88 0;
#X connect 74 1 78 0;
#X connect 75 0 74 0;
#X connect 76 0 74 0;
#X connect 80 0 74 0;
#X connect 81 0 80 0;
#X connect 85 0 97 0;
#X connect 86 0 98 0;
#X connect 88 0 87 0;
#X connect 89 0 88 1;
#X connect 92 0 45 0;
#X connect 92 1 45 1;
#X connect 92 1 44 0;
#X connect 95 0 74 0;
#X connect 96 0 75 0;
#X connect 96 1 76 0;
#X connect 97 0 86 0;
#X connect 97 1 75 0;
#X connect 97 2 95 0;
#X connect 98 0 75 0;
#X connect 98 1 76 0;
#X connect 98 2 74 0;
#X connect 99 0 75 0;
#X connect 99 1 76 0;
#X connect 99 2 74 0;
#X connect 100 0 31 1;
#X connect 100 0 34 0;
#X connect 101 0 5 0;
#X coords 0 -1 1 1 445 86 2 100 100;
#X restore 7 45 pd osc_interface;
#X obj 8 9 bng 30 250 50 0 empty empty empty 32 7 0 10 -4034 -262144
-1;
#X text 41 4 Connecter à l'IP du module :;
#X obj 351 21 r oscinput_bdles;
#X obj 208 21 r oscinput_onepacket;
#X msg 44 21 255.255.255.255;
#X obj 476 78 bng 15 250 50 0 empty empty -FORCEOFF_ALL 17 7 0 10 -262144
-1 -1;
#X obj 476 24 bng 15 250 50 0 empty empty -SOFTRESET 17 7 0 10 -262144
-1 -1;
#X obj 476 49 s pdreset;
#X obj 476 103 s pdforceoff;
#X floatatom 687 297 0 0 0 0 - - -;
#X obj 641 270 touchin;
#X text 718 194 channel aftertouch, f 10;
#X obj 720 348 hsl 64 15 0 1 0 0 empty empty PWM_ratio -2 -8 0 10 -261234
-1 -1 0 0;
#X floatatom 717 366 5 0 0 0 - - -;
#X text 641 242 OE;
#X obj 716 438 symbol;
#X obj 716 462 pack s f f;
#X obj 716 507 s lowlevel_outlet;
#X msg 716 415 /suraig/ll/oe;
#X obj 716 392 t b a;
#X msg 716 485 sendtyped \$1 ff \$2 0.075;
#X obj 715 234 map 0 127 1 0, f 14;
#X obj 715 257 print;
#X obj 191 387 nbx 3 14 0 127 0 0 empty empty sortie 0 -8 0 10 -4034
-1 -1 0 256;
#X obj 236 387 nbx 3 14 0 255 0 0 empty empty vélocité 0 -8 0 10
-261234 -1 -1 0 256;
#X text 189 353 COIL;
#X obj 344 347 r pdreset;
#X floatatom 344 370 5 0 0 0 - - -;
#X floatatom 407 370 5 0 0 0 - - -;
#X obj 407 347 r pdforceoff;
#X obj 11 293 symbol;
#X msg 11 340 \$1 \$2 \$3;
#X msg 11 270 /suraig/coil;
#X floatatom 191 199 5 0 0 0 - - -;
#X floatatom 236 199 5 0 0 0 - - -;
#X obj 11 248 t b a;
#X obj 11 222 bng 15 250 50 0 empty empty empty 17 7 0 10 -262144 -1
-1;
#X obj 11 317 pack s f f;
#X obj 11 363 s oscinput_bdles;
#X obj 191 328 spigot;
#X obj 191 221 t a a;
#X obj 224 283 &&;
#X obj 256 233 t b f;
#X text 299 178 Channel 8 : Module suraigu \, octave recouvrant les
bourdons aigus : on commence à 80;
#X text 312 414 Channel 6 : Module suraigu \, octave suivant les bourdons
aigus : on commence à 92;
#X obj 191 177 notein 8;
#X obj 224 257 > 78;
#X obj 256 257 < 92;
#X obj 192 630 nbx 3 14 0 127 0 0 empty empty sortie 0 -8 0 10 -4034
-1 -1 0 256;
#X obj 237 630 nbx 3 14 0 255 0 0 empty empty vélocité 0 -8 0 10
-261234 -1 -1 0 256;
#X text 190 596 COIL;
#X obj 345 590 r pdreset;
#X floatatom 345 613 5 0 0 0 - - -;
#X floatatom 408 613 5 0 0 0 - - -;
#X obj 408 590 r pdforceoff;
#X obj 12 536 symbol;
#X msg 12 583 \$1 \$2 \$3;
#X msg 12 513 /suraig/coil;
#X floatatom 192 442 5 0 0 0 - - -;
#X floatatom 237 442 5 0 0 0 - - -;
#X obj 12 491 t b a;
#X obj 12 465 bng 15 250 50 0 empty empty empty 17 7 0 10 -262144 -1
-1;
#X obj 12 560 pack s f f;
#X obj 12 606 s oscinput_bdles;
#X obj 192 571 spigot;
#X obj 192 464 t a a;
#X obj 225 526 &&;
#X obj 257 476 t b f;
#X obj 225 500 > 91;
#X obj 257 500 < 121;
#X obj 192 420 notein 6;
#X obj 601 22 ctlin 123 6;
#X obj 601 48 ctlin 123 8;
#X msg 601 105 /tools/softreset;
#X msg 710 105 /tools/forceoff_all;
#X obj 709 131 s oscinput_onepacket;
#X connect 1 0 5 0;
#X connect 3 0 0 2;
#X connect 4 0 0 1;
#X connect 5 0 0 0;
#X connect 6 0 9 0;
#X connect 6 0 75 0;
#X connect 7 0 8 0;
#X connect 7 0 74 0;
#X connect 11 0 22 0;
#X connect 11 1 10 0;
#X connect 13 0 14 0;
#X connect 13 0 20 0;
#X connect 16 0 17 0;
#X connect 17 0 21 0;
#X connect 19 0 16 0;
#X connect 20 0 19 0;
#X connect 20 1 17 1;
#X connect 21 0 18 0;
#X connect 22 0 23 0;
#X connect 22 0 13 0;
#X connect 24 0 36 0;
#X connect 25 0 38 2;
#X connect 27 0 28 0;
#X connect 28 0 24 0;
#X connect 28 0 25 0;
#X connect 29 0 24 0;
#X connect 29 0 25 0;
#X connect 30 0 29 0;
#X connect 31 0 38 0;
#X connect 32 0 39 0;
#X connect 33 0 31 0;
#X connect 34 0 41 0;
#X connect 35 0 25 0;
#X connect 36 0 33 0;
#X connect 36 1 38 1;
#X connect 37 0 36 0;
#X connect 38 0 32 0;
#X connect 40 0 24 0;
#X connect 41 0 40 0;
#X connect 41 1 43 0;
#X connect 41 1 47 0;
#X connect 42 0 40 1;
#X connect 43 0 47 0;
#X connect 43 1 48 0;
#X connect 46 0 34 0;
#X connect 46 1 35 0;
#X connect 47 0 42 0;
#X connect 48 0 42 1;
#X connect 49 0 61 0;
#X connect 50 0 63 2;
#X connect 52 0 53 0;
#X connect 53 0 49 0;
#X connect 53 0 50 0;
#X connect 54 0 49 0;
#X connect 54 0 50 0;
#X connect 55 0 54 0;
#X connect 56 0 63 0;
#X connect 57 0 64 0;
#X connect 58 0 56 0;
#X connect 59 0 66 0;
#X connect 60 0 50 0;
#X connect 61 0 58 0;
#X connect 61 1 63 1;
#X connect 62 0 61 0;
#X connect 63 0 57 0;
#X connect 65 0 49 0;
#X connect 66 0 65 0;
#X connect 66 1 68 0;
#X connect 66 1 69 0;
#X connect 67 0 65 1;
#X connect 68 0 69 0;
#X connect 68 1 70 0;
#X connect 69 0 67 0;
#X connect 70 0 67 1;
#X connect 71 0 59 0;
#X connect 71 1 60 0;
#X connect 72 0 8 0;
#X connect 72 0 74 0;
#X connect 73 0 8 0;
#X connect 73 0 74 0;
#X connect 74 0 76 0;
#X connect 75 0 76 0;
